<!-- Generator: Adobe Illustrator 19.0.0, SVG Export Plug-In  -->
<svg version="1.1"
	 xmlns="http://www.w3.org/2000/svg" xmlns:xlink="http://www.w3.org/1999/xlink" xmlns:a="http://ns.adobe.com/AdobeSVGViewerExtensions/3.0/"
	 x="0px" y="0px" width="64.2135px" height="63.8688px" viewBox="0 0 64.2135 63.8688"
	 style="enable-background:new 0 0 64.2135 63.8688;" xml:space="preserve">
<style type="text/css">
	.st0{fill:#DBDBDB;}
</style>
<defs>
</defs>
<g id="XMLID_15_">
	<rect id="XMLID_41_" x="4" y="16.8688" class="st0" width="22" height="2"/>
	<path id="XMLID_37_" class="st0" d="M11.3518,37.1312c0,2.177,0.592,4.214,1.609,5.977l-7.816,7.816
		c-0.59,0.589-0.915,1.373-0.915,2.207s0.325,1.618,0.915,2.207c0.608,0.608,1.408,0.912,2.207,0.912s1.599-0.304,2.207-0.912
		l7.817-7.816c1.762,1.017,3.799,1.609,5.976,1.609c6.617,0,12-5.383,12-12s-5.383-12-12-12S11.3518,30.5142,11.3518,37.1312z
		 M8.1448,53.9242c-0.438,0.436-1.149,0.436-1.586,0c-0.212-0.212-0.329-0.493-0.329-0.793s0.117-0.581,0.329-0.793l7.557-7.556
		c0.478,0.577,1.009,1.108,1.586,1.586L8.1448,53.9242z M33.3518,37.1312c0,5.514-4.486,10-10,10s-10-4.486-10-10s4.486-10,10-10
		S33.3518,31.6172,33.3518,37.1312z"/>
	<path id="XMLID_34_" class="st0" d="M15.3518,37.1312c0,4.411,3.589,8,8,8s8-3.589,8-8s-3.589-8-8-8
		S15.3518,32.7202,15.3518,37.1312z M29.3518,37.1312c0,3.309-2.691,6-6,6s-6-2.691-6-6s2.691-6,6-6
		S29.3518,33.8222,29.3518,37.1312z"/>
	<rect id="XMLID_33_" x="4" y="20.8688" class="st0" width="4" height="2"/>
	<rect id="XMLID_32_" x="10" y="20.8688" class="st0" width="5" height="2"/>
	<rect id="XMLID_31_" x="30" y="49.8688" class="st0" width="7" height="2"/>
	<rect id="XMLID_30_" x="34" y="45.8688" class="st0" width="3" height="2"/>
	<rect id="XMLID_29_" x="13" y="53.8688" class="st0" width="12" height="2"/>
	<rect id="XMLID_28_" x="27" y="53.8688" class="st0" width="10" height="2"/>
	<rect id="XMLID_27_" x="4" y="24.8688" class="st0" width="5" height="2"/>
	<path id="XMLID_19_" class="st0" d="M64.1129,59.7792L58,43.9502v-8.819c0-0.552-0.0962-1.2625-0.6482-1.2625H55V6.1312
		c0-1.62-0.4631-3.139-1.6231-4.278l-0.613,0.713l0.745-0.714c-1.131-1.11-2.601-1.721-4.179-1.721
		c-1.271,0-2.473,0.403-3.489,1.138c-1.016-0.735-2.2235-1.138-3.4945-1.138s-2.4813,0.403-3.4972,1.138
		C37.8331,0.5342,36.6214,0,35.3504,0c-2.968,0-5.4376,1.8688-5.9156,4.8688h-7.083c-2.757,0-5,3-5,5h-12
		C2.5948,9.8688,0,12.3742,0,15.1312v44c0,2.757,2.5948,4.7375,5.3518,4.7375h31c2.757,0,4.6482-1.9805,4.6482-4.7375v-37
		c0-0.022,0.1649-0.041,0.1629-0.063c-0.006-0.088,0.065-0.173,0.037-0.257c-0.011-0.032,0.025-0.063,0.011-0.094
		c-0.049-0.106-0.088-0.207-0.174-0.293l-10.989-11c-0.086-0.086-0.1825-0.148-0.2885-0.196c-0.03-0.014-0.0573-0.022-0.0883-0.032
		c-0.085-0.029-0.1706-0.1782-0.2606-0.1832c-0.021-0.002-0.0376-0.1442-0.0586-0.1442h-10c0-1,1.346-3,3-3h8
		c0.552,0,1-0.3168,1-0.8688c0-2.206,1.794-3.9344,4-3.9344c0.74,0,1.452,0.2348,2.072,0.6138
		c-0.006,0.008-0.009,0.0334-0.015,0.0414c-0.152,0.22-0.285,0.4572-0.405,0.6932c-0.028,0.055-0.054,0.1151-0.08,0.1711
		c-0.106,0.226-0.201,0.4591-0.278,0.6961c-0.007,0.021-0.015,0.041-0.022,0.061c-0.079,0.254-0.136,0.5155-0.181,0.7805
		c-0.011,0.064-0.02,0.1273-0.029,0.1913c-0.037,0.269-0.062,0.5411-0.062,0.8171c0,1.62,0.639,3.1391,1.799,4.2781
		c0.194,0.191,0.448,0.287,0.701,0.287s0.506-0.096,0.701-0.287c1.16-1.139,1.799-2.658,1.799-4.278
		c0-0.276-0.025-0.548-0.062-0.817c-0.009-0.064-0.018-0.127-0.029-0.191c-0.045-0.264-0.102-0.526-0.181-0.78
		c-0.006-0.021-0.015-0.04-0.022-0.06c-0.077-0.237-0.172-0.468-0.278-0.694c-0.026-0.056-0.052-0.112-0.08-0.167
		c-0.12-0.236-0.253-0.466-0.405-0.685c-0.006-0.008-0.009-0.017-0.015-0.025c1.24-0.757,2.903-0.757,4.144,0
		c-0.006,0.008-0.009,0.017-0.015,0.025c-0.152,0.22-0.285,0.449-0.405,0.685c-0.028,0.055-0.054,0.111-0.08,0.167
		c-0.106,0.226-0.201,0.457-0.278,0.694c-0.007,0.021-0.015,0.04-0.022,0.06c-0.079,0.254-0.136,0.515-0.181,0.78
		c-0.011,0.064-0.02,0.127-0.029,0.191c-0.037,0.269-0.062,0.541-0.062,0.817c0,1.62,0.639,3.139,1.799,4.278
		c0.194,0.191,0.448,0.287,0.701,0.287s0.506-0.096,0.701-0.287c1.16-1.139,1.799-2.658,1.799-4.278
		c0-0.276-0.025-0.548-0.062-0.817c-0.009-0.064-0.018-0.127-0.029-0.191c-0.045-0.264-0.102-0.526-0.181-0.78
		c-0.006-0.021-0.015-0.04-0.022-0.06c-0.077-0.237-0.172-0.468-0.278-0.694c-0.026-0.056-0.052-0.112-0.08-0.167
		c-0.12-0.236-0.253-0.466-0.405-0.685c-0.006-0.008-0.009-0.017-0.015-0.025c1.5-0.916,3.4091-0.695,4.6951,0.568l0,0
		C52.7499,4.0402,53,5.0532,53,6.1312v27.7375h-1.6482c-0.552,0-1.3518,0.7105-1.3518,1.2625v8.819l-5.7611,15.83
		c-0.113,0.302,0.014,0.639,0.192,0.906l2.044,2.8688c0.187,0.278,0.543,0.3138,0.877,0.3138h14c0.334,0,0.646-0.0358,0.832-0.3138
		l1.912-2.9344C64.2739,60.3526,64.2249,60.0812,64.1129,59.7792z M37.9378,20.8688H30v-7.3235L37.9378,20.8688z M28,11.8688
		v10.2625c0,0.552,0.7998,0.7375,1.3518,0.7375H39v36.2625c0,1.654-0.9942,2.7375-2.6482,2.7375h-31
		C3.6978,61.8688,2,60.7852,2,59.1312v-44c0-1.654,1.6978-3.2625,3.3518-3.2625H28z M39.2818,6.8392
		c-0.009,0.052-0.019,0.104-0.03,0.156c-0.05,0.225-0.115,0.446-0.202,0.658c-0.012,0.029-0.028,0.057-0.041,0.086
		c-0.044,0.1-0.104,0.192-0.157,0.288c-0.052-0.096-0.112-0.188-0.157-0.288c-0.013-0.029-0.029-0.056-0.041-0.086
		c-0.087-0.213-0.152-0.434-0.202-0.659c-0.011-0.051-0.021-0.103-0.03-0.155c-0.041-0.232-0.07-0.467-0.07-0.708
		s0.029-0.476,0.07-0.708c0.009-0.052,0.018-0.103,0.03-0.155c0.05-0.225,0.115-0.446,0.202-0.658
		c0.012-0.029,0.028-0.057,0.041-0.086c0.044-0.1,0.104-0.192,0.157-0.288c0.052,0.096,0.112,0.188,0.157,0.288
		c0.013,0.029,0.029,0.057,0.041,0.086c0.088,0.212,0.153,0.432,0.202,0.658c0.011,0.051,0.021,0.104,0.03,0.156
		c0.041,0.231,0.07,0.467,0.07,0.707S39.3228,6.6072,39.2818,6.8392z M46.2818,6.8392c-0.009,0.052-0.019,0.104-0.03,0.156
		c-0.05,0.225-0.115,0.446-0.202,0.658c-0.012,0.029-0.028,0.057-0.041,0.086c-0.044,0.1-0.104,0.192-0.157,0.288
		c-0.052-0.096-0.112-0.188-0.157-0.288c-0.013-0.029-0.029-0.056-0.041-0.086c-0.087-0.213-0.152-0.434-0.202-0.659
		c-0.011-0.051-0.021-0.103-0.03-0.155c-0.041-0.232-0.07-0.467-0.07-0.708s0.029-0.476,0.07-0.708
		c0.009-0.052,0.018-0.103,0.03-0.155c0.05-0.225,0.115-0.446,0.202-0.658c0.012-0.029,0.028-0.057,0.041-0.086
		c0.044-0.1,0.104-0.192,0.157-0.288c0.052,0.096,0.112,0.188,0.157,0.288c0.013,0.029,0.029,0.057,0.041,0.086
		c0.088,0.212,0.153,0.432,0.202,0.658c0.011,0.051,0.021,0.104,0.03,0.156c0.041,0.231,0.07,0.467,0.07,0.707
		S46.3228,6.6072,46.2818,6.8392z M52.1129,44.351C52.1549,44.239,52,44.2512,52,44.1312v-8.2625h4v8.2625
		c0,0.12,0.1969,0.1078,0.2389,0.2198l2.6699,6.5178h-9.114L52.1129,44.351z M60.8168,61.8688h-12.93l-1.419-2.129l2.577-6.871
		h10.614l2.577,6.871L60.8168,61.8688z"/>
	<rect id="XMLID_18_" x="49.3518" y="58.1312" class="st0" width="2" height="2"/>
	<rect id="XMLID_17_" x="53.3518" y="58.1312" class="st0" width="2" height="2"/>
	<rect id="XMLID_16_" x="57.3518" y="58.1312" class="st0" width="2" height="2"/>
</g>
</svg>
