<!-- Generator: Adobe Illustrator 19.0.0, SVG Export Plug-In  -->
<svg version="1.1"
	 xmlns="http://www.w3.org/2000/svg" xmlns:xlink="http://www.w3.org/1999/xlink" xmlns:a="http://ns.adobe.com/AdobeSVGViewerExtensions/3.0/"
	 x="0px" y="0px" width="242.8261px" height="60px" viewBox="0 0 242.8261 60" style="enable-background:new 0 0 242.8261 60;"
	 xml:space="preserve">
<style type="text/css">
	.st0{fill:#03387E;}
</style>
<defs>
</defs>
<path id="XMLID_15_" class="st0" d="M32.2905,24.2292c4.0035,0,7.3927-0.0005,10.7818,0.0002
	c5.6557,0.001,11.3125-0.0688,16.9668,0.0243c5.4587,0.09,6.2417,1.6062,3.7538,6.3655
	c-3.7372,7.1495-7.3412,14.3687-10.9902,21.564c-0.2143,0.4225-0.3267,0.8968-0.6303,1.7527c7.736,0,15.158,0,23.074,0
	c2.0097-3.9223,4.2585-8.2935,6.4907-12.6732c2.1063-4.1323,4.2422-8.2503,6.2777-12.4175
	c1.7757-3.6353,4.4972-5.4448,8.6443-5.3843c8.0778,0.1178,16.159-0.0065,24.2382,0.0523c4.3348,0.0315,5.0558,1.2693,3.0835,5.1802
	c-4.3592,8.643-8.754,17.268-13.165,25.8848c-1.6617,3.2462-4.2305,4.903-8.0253,4.8425c-7.4717-0.1193-14.9473-0.0948-22.4202-0.02
	c-11.0848,0.1108-22.1687,0.3183-33.253,0.4798c-0.9085,0.0132-1.8198,0.0268-2.7262-0.0247
	c-3.885-0.221-4.6898-1.5315-2.9567-4.986c3.1653-6.3092,6.3947-12.5862,9.5885-18.881c0.3562-0.7022,0.6557-1.433,1.2472-2.7357
	c-2.322,0-4.2698,0-6.2178,0c-5.3527,0.0002-10.7068,0.0698-16.0573-0.0388c-1.7645-0.0358-2.6942,0.5712-3.4657,2.1475
	c-2.793,5.7063-5.7332,11.3405-8.62,17.0008c-2.5437,4.9877-6.735,7.3795-12.2163,7.4932
	c-5.2875,0.1097-7.0277-2.6425-4.6477-7.3667c6.215-12.3363,12.5073-24.6337,18.7743-36.9439
	c1.2348-2.4255,2.6188-4.7835,3.7167-7.2688c2.4582-5.5648,6.9437-8.0962,12.7162-8.1608
	C50.289-0.0417,64.329-0.0113,78.3654,0.1475c12.0032,0.1358-3.3322,9.0963-6.6367,9.184
	C61.939,9.591,52.1379,9.4767,42.3422,9.3907c-1.8588-0.0163-2.9318,0.5188-3.7397,2.242
	C36.6959,15.6994,34.5905,19.6732,32.2905,24.2292 M113.4214,29.4365c-1.556,0-2.4477-0.0158-3.3387,0.0027
	c-4.0228,0.0838-8.8237-1.139-11.8438,0.6465c-2.8807,1.703-3.9388,6.5282-5.737,10.0125c-2.2,4.2628-4.336,8.5587-6.7463,13.3282
	c5.1472,0,9.7507,0.0362,14.3522-0.0467c0.5623-0.0102,1.3695-0.5258,1.6308-1.0308
	C105.5704,44.9415,109.3289,37.496,113.4214,29.4365z M152.2566,9.7803c-0.824,0.813-1.9268,1.4827-2.43,2.4608
	c-6.7793,13.1792-13.5298,26.3738-20.1637,39.6269c-2.5178,5.03-6.089,8.1893-11.9757,8.1312
	c-4.8123-0.0475-6.292-2.2257-4.1263-6.5555c5.2765-10.5495,10.6892-21.0307,16.0353-31.5454
	c1.907-3.7507,3.7803-7.5183,5.9357-11.8092c-2.684,0-4.8575,0-7.0308,0c-7.8772,0.0002-15.7568,0.107-23.6292-0.0898
	c-1.5702-0.0393-4.2287-1.0205-4.4117-1.9542c-0.2963-1.5118,0.5658-3.9907,1.7962-4.8962
	c2.0778-1.5292,4.8222-3.0105,7.2923-3.0207c43.1214-0.1782,86.2437-0.1445,129.3658-0.0572
	c1.3163,0.0027,3.397,0.7862,3.7523,1.7242c0.4488,1.1848-0.1098,3.1925-0.9382,4.3342c-2.1618,2.9792-5.4022,3.9775-9.0402,3.9727
	c-20.1977-0.0273-40.3957,0.0218-60.593-0.0592c-2.3835-0.0095-3.711,0.58-4.853,2.8877
	c-6.574,13.2827-13.3949,26.443-20.0863,39.6679c-2.4038,4.7508-6.061,7.4077-11.4978,7.398c-4.97-0.009-6.4225-2.2628-4.17-6.7257
	c4.6335-9.1803,9.3422-18.3227,14.01-27.4857c2.5578-5.021,5.0953-10.0522,7.642-15.0788
	C152.8456,10.3975,152.5511,10.089,152.2566,9.7803z M192.7525,53.4415c1.2063,0,2.1852,0,3.164,0
	c5.2522,0.0002,10.5113-0.1492,15.7525,0.092c10.1875,0.469,0.14,5.8412-2.986,5.8463c-7.2723,0.0118-14.5447,0.0065-21.817,0.0063
	c-11.6502-0.0002-23.3004,0.016-34.9505-0.009c-4.6267-0.01-5.2508-1.0908-3.1467-5.2363
	c4.2452-8.3633,8.5995-16.6737,12.6925-25.1108c2.0548-4.236,5.064-6.1755,9.7957-6.056
	c7.2677,0.1837,14.5435,0.0483,21.8158,0.0483c11.5467,0,23.0938-0.0575,34.6388,0.0788c8.9812,0.1062-0.3477,5.8007-3.1335,5.8372
	c-5.8573,0.0768-11.7177-0.0332-17.573,0.0982c-0.9988,0.0223-2.4748,0.6262-2.8897,1.4075
	c-3.7817,7.1245-7.3802,14.3462-11.0165,21.5475C192.9344,52.3177,192.9195,52.7195,192.7525,53.4415
	C193.9588,53.4415,192.9195,52.7195,192.7525,53.4415z M159.4318,53.294c1.4177,0.0623,2.385,0.1393,3.3525,0.1418
	c5.7473,0.0148,11.4982-0.0983,17.2397,0.087c1.6152,0.0522,2.321-0.4152,2.9827-1.7435
	c2.8272-5.6755,5.7485-11.3042,8.6172-16.9592c0.9293-1.832,1.8028-3.6923,2.851-5.846c-7.3505,0-14.197-0.0245-21.0427,0.0373
	c-0.6967,0.0063-1.7333,0.336-2.0255,0.8495c-1.5735,2.7657-2.9615,5.6368-4.6495,8.932c3.1973,0,5.8112-0.181,8.3812,0.0763
	c8.4102,0.8422-0.2677,5.6402-2.9685,5.7697c-2.2133,0.106-4.441-0.0587-6.6503,0.082c-0.7797,0.0497-1.8722,0.4557-2.2225,1.0513
	C161.9373,48.0842,160.8189,50.5377,159.4318,53.294C160.8494,53.3564,160.8189,50.5377,159.4318,53.294z"/>
</svg>
