<!-- Generator: Adobe Illustrator 19.0.0, SVG Export Plug-In  -->
<svg version="1.1"
	 xmlns="http://www.w3.org/2000/svg" xmlns:xlink="http://www.w3.org/1999/xlink" xmlns:a="http://ns.adobe.com/AdobeSVGViewerExtensions/3.0/"
	 x="0px" y="0px" width="154.0149px" height="53.5946px" viewBox="0 0 154.0149 53.5946"
	 style="enable-background:new 0 0 154.0149 53.5946;" xml:space="preserve">
<style type="text/css">
	.st0{fill:#FFFFFF;}
</style>
<defs>
</defs>
<path id="XMLID_30_" class="st0" d="M19.3743,14.5375c2.4021,0,4.4356-0.0003,6.4691,0.0001
	c3.3934,0.0006,6.7875-0.0413,10.1801,0.0146c3.2752,0.054,3.745,0.9637,2.2523,3.8193c-2.2423,4.2897-4.4047,8.6212-6.5941,12.9384
	c-0.1286,0.2535-0.196,0.5381-0.3782,1.0516c4.6416,0,9.0948,0,13.8444,0c1.2058-2.3534,2.5551-4.9761,3.8944-7.6039
	c1.2638-2.4794,2.5453-4.9502,3.7666-7.4505c1.0654-2.1812,2.6983-3.2669,5.1866-3.2306c4.8467,0.0707,9.6954-0.0039,14.5429,0.0314
	c2.6009,0.0189,3.0335,0.7616,1.8501,3.1081c-2.6155,5.1858-5.2524,10.3608-7.899,15.5309
	c-0.997,1.9477-2.5383,2.9418-4.8152,2.9055c-4.483-0.0716-8.9684-0.0569-13.4521-0.012
	c-6.6509,0.0665-13.3012,0.191-19.9518,0.2879c-0.5451,0.0079-1.0919,0.0161-1.6357-0.0148
	c-2.331-0.1326-2.8139-0.9189-1.774-2.9916c1.8992-3.7855,3.8368-7.5517,5.7531-11.3286c0.2137-0.4213,0.3934-0.8598,0.7483-1.6414
	c-1.3932,0-2.5619,0-3.7307,0c-3.2116,0.0001-6.4241,0.0419-9.6344-0.0233c-1.0587-0.0215-1.6165,0.3427-2.0794,1.2885
	c-1.6758,3.4238-3.4399,6.8043-5.172,10.2005c-1.5262,2.9926-4.041,4.4277-7.3298,4.4959c-3.1725,0.0658-4.2166-1.5855-2.7886-4.42
	c3.729-7.4018,7.5044-14.7802,11.2646-22.1663c0.7409-1.4553,1.5713-2.8701,2.23-4.3613c1.4749-3.3389,4.1662-4.8577,7.6297-4.8965
	c8.4219-0.0944,16.8459-0.0762,25.2677,0.0191c7.2019,0.0815-1.9993,5.4578-3.982,5.5104
	C37.1634,5.7546,31.2827,5.686,25.4053,5.6344c-1.1153-0.0098-1.7591,0.3113-2.2438,1.3452
	C22.0175,9.4196,20.7543,11.8039,19.3743,14.5375 M68.0528,17.6619c-0.9336,0-1.4686-0.0095-2.0032,0.0016
	c-2.4137,0.0503-5.2942-0.6834-7.1063,0.3879c-1.7284,1.0218-2.3633,3.9169-3.4422,6.0075c-1.32,2.5577-2.6016,5.1352-4.0478,7.9969
	c3.0883,0,5.8504,0.0217,8.6113-0.028c0.3374-0.0061,0.8217-0.3155,0.9785-0.6185C63.3422,26.9649,65.5973,22.4976,68.0528,17.6619z
	 M91.3539,5.8682c-0.4944,0.4878-1.1561,0.8896-1.458,1.4765c-4.0676,7.9075-8.1179,15.8243-12.0982,23.7761
	c-1.5107,3.018-3.6534,4.9136-7.1854,4.8787c-2.8874-0.0285-3.7752-1.3354-2.4758-3.9333
	c3.1659-6.3297,6.4135-12.6184,9.6212-18.9272c1.1442-2.2504,2.2682-4.511,3.5614-7.0855c-1.6104,0-2.9145,0-4.2185,0
	c-4.7263,0.0001-9.4541,0.0642-14.1775-0.0539c-0.9421-0.0236-2.5372-0.6123-2.647-1.1725
	c-0.1778-0.9071,0.3395-2.3944,1.0777-2.9377c1.2467-0.9175,2.8933-1.8063,4.3754-1.8124
	c25.8728-0.1069,51.7462-0.0867,77.6194-0.0343c0.7898,0.0016,2.0382,0.4717,2.2514,1.0345
	c0.2693,0.7109-0.0659,1.9155-0.5629,2.6005c-1.2971,1.7875-3.2413,2.3865-5.4241,2.3836
	c-12.1186-0.0164-24.2374,0.0131-36.3558-0.0355c-1.4301-0.0057-2.2266,0.348-2.9118,1.7326
	c-3.9444,7.9696-8.0369,15.8658-12.0518,23.8007c-1.4423,2.8505-3.6366,4.4446-6.8987,4.4388
	c-2.982-0.0054-3.8535-1.3577-2.502-4.0354c2.7801-5.5082,5.6053-10.9936,8.406-16.4914c1.5347-3.0126,3.0572-6.0313,4.5852-9.0473
	C91.7073,6.2385,91.5306,6.0534,91.3539,5.8682z M115.6514,32.0649c0.7238,0,1.3111,0,1.8984,0
	c3.1513,0.0001,6.3068-0.0895,9.4515,0.0552c6.1125,0.2814,0.084,3.5047-1.7916,3.5078c-4.3634,0.0071-8.7268,0.0039-13.0902,0.0038
	c-6.9901-0.0001-13.9802,0.0096-20.9703-0.0054c-2.776-0.006-3.1505-0.6545-1.888-3.1418
	c2.5471-5.018,5.1597-10.0042,7.6155-15.0665c1.2329-2.5416,3.0384-3.7053,5.8774-3.6336c4.3606,0.1102,8.7261,0.029,13.0895,0.029
	c6.928,0,13.8563-0.0345,20.7833,0.0473c5.3887,0.0637-0.2086,3.4804-1.8801,3.5023c-3.5144,0.0461-7.0306-0.0199-10.5438,0.0589
	c-0.5993,0.0134-1.4849,0.3757-1.7338,0.8445c-2.269,4.2747-4.4281,8.6077-6.6099,12.9285
	C115.7606,31.3906,115.7516,31.6317,115.6514,32.0649C116.3752,32.0649,115.7516,31.6317,115.6514,32.0649z M95.659,31.9764
	c0.8506,0.0374,1.431,0.0836,2.0115,0.0851c3.4484,0.0089,6.8989-0.059,10.3438,0.0522c0.9691,0.0313,1.3926-0.2491,1.7896-1.0461
	c1.6963-3.4053,3.4491-6.7825,5.1703-10.1755c0.5576-1.0992,1.0817-2.2154,1.7106-3.5076c-4.4103,0-8.5182-0.0147-12.6256,0.0224
	c-0.418,0.0038-1.04,0.2016-1.2153,0.5097c-0.9441,1.6594-1.7769,3.3821-2.7897,5.3592c1.9184,0,3.4867-0.1086,5.0287,0.0458
	c5.0461,0.5053-0.1606,3.3841-1.7811,3.4618c-1.328,0.0636-2.6646-0.0352-3.9902,0.0492c-0.4678,0.0298-1.1233,0.2734-1.3335,0.6308
	C97.1623,28.8505,96.4913,30.3226,95.659,31.9764C96.5096,32.0138,96.4913,30.3226,95.659,31.9764z"/>
<g id="XMLID_15_">
	<path id="XMLID_28_" class="st0" d="M108.9524,53.4579l-0.7861-8.2988h-0.041c-0.041,0.5381-0.1665,1.3125-0.376,2.3242
		l-1.2578,5.9746h-1.4971l2.1123-9.9941h2.208l0.7451,7.8545h0.041l4.1426-7.8545h2.3516l-2.085,9.9941h-1.5518l1.2441-5.9609
		c0.1777-0.8477,0.3735-1.627,0.5879-2.3379h-0.041l-4.3955,8.2988H108.9524z"/>
	<path id="XMLID_25_" class="st0" d="M122.3235,53.4579h-5.3047l2.1123-9.9941h5.3047l-0.2939,1.4014h-3.6846l-0.5742,2.7002h3.4316
		l-0.2803,1.3877h-3.4453l-0.6563,3.1172h3.6846L122.3235,53.4579z M120.8675,42.4931c0.4419-0.4922,0.9546-1.1826,1.5381-2.0713
		h1.8047v0.1299c-0.2461,0.3008-0.606,0.6689-1.0801,1.1035c-0.4741,0.4355-0.8726,0.7715-1.1963,1.0088h-1.0664V42.4931z"/>
	<path id="XMLID_23_" class="st0" d="M131.012,53.4579h-1.75l-1.3125-4.0469l-2.9941,4.0469h-1.8115l4.0059-5.2637l-1.709-4.7305
		h1.6816l1.2168,3.6914l2.748-3.6914h1.8184l-3.7666,4.8535L131.012,53.4579z"/>
	<path id="XMLID_21_" class="st0" d="M132.2493,53.4579l2.126-9.9941h1.6064l-2.126,9.9941H132.2493z"/>
	<path id="XMLID_19_" class="st0" d="M142.2435,44.7216c-0.7017,0-1.3286,0.2031-1.8799,0.6084s-0.9922,0.9971-1.3228,1.7744
		c-0.3306,0.7764-0.4956,1.6299-0.4956,2.5596c0,0.8203,0.188,1.4482,0.564,1.8838c0.376,0.4346,0.9307,0.6523,1.6646,0.6523
		c0.6426,0,1.3921-0.1553,2.249-0.4648v1.4014c-0.8203,0.3057-1.6724,0.458-2.5566,0.458c-1.1304,0-2.0156-0.3379-2.6558-1.0156
		c-0.6401-0.6758-0.9604-1.625-0.9604-2.8467c0-1.1846,0.2402-2.2852,0.7212-3.3018s1.1221-1.7891,1.9243-2.3174
		s1.7183-0.793,2.748-0.793c0.9888,0,1.8755,0.21,2.6592,0.6289l-0.6426,1.333c-0.2871-0.1553-0.5923-0.2871-0.916-0.3965
		S142.6536,44.7216,142.2435,44.7216z"/>
	<path id="XMLID_16_" class="st0" d="M154.0149,47.1552c0,1.2715-0.2163,2.4043-0.6494,3.3975s-1.0288,1.749-1.7876,2.2666
		c-0.7588,0.5166-1.6396,0.7754-2.6421,0.7754c-1.1802,0-2.0942-0.3408-2.7412-1.0215c-0.647-0.6816-0.9707-1.624-0.9707-2.8271
		c0-1.2168,0.2246-2.3271,0.6733-3.333c0.4487-1.0039,1.063-1.7734,1.8423-2.3066s1.6636-0.7998,2.6523-0.7998
		c1.144,0,2.0337,0.3398,2.6694,1.0186S154.0149,45.9472,154.0149,47.1552z M150.262,44.7079c-0.6289,0-1.1987,0.2188-1.709,0.6563
		s-0.9102,1.0449-1.1997,1.8223c-0.2896,0.7764-0.4341,1.625-0.4341,2.5459c0,0.7881,0.1855,1.3965,0.5571,1.8252
		s0.8896,0.6426,1.5552,0.6426c0.6289,0,1.1953-0.2178,1.6987-0.6523c0.5034-0.4355,0.8955-1.0391,1.1758-1.8125
		c0.2803-0.7715,0.4204-1.6279,0.4204-2.5664c0-0.7744-0.1802-1.3789-0.54-1.8115S150.9183,44.7079,150.262,44.7079z"/>
</g>
</svg>
