
<!-- Generator: Adobe Illustrator 21.0.0, SVG Export Plug-In  -->
<svg version="1.1"
	 xmlns="http://www.w3.org/2000/svg" xmlns:xlink="http://www.w3.org/1999/xlink" xmlns:a="http://ns.adobe.com/AdobeSVGViewerExtensions/3.0/"
	 x="0px" y="0px" width="145.7px" height="36px" viewBox="0 0 145.7 36" style="enable-background:new 0 0 145.7 36;"
	 xml:space="preserve">
<style type="text/css">
	.st0{fill:#03387E;}
</style>
<defs>
</defs>
<path class="st0" d="M19.4,14.5c2.4,0,4.4,0,6.5,0c3.4,0,6.8,0,10.2,0c3.3,0.1,3.7,1,2.3,3.8c-2.2,4.3-4.4,8.6-6.6,12.9
	c-0.1,0.3-0.2,0.5-0.4,1.1h13.8c1.2-2.4,2.6-5,3.9-7.6c1.3-2.5,2.5-4.9,3.8-7.4c1.1-2.2,2.7-3.3,5.2-3.2c4.8,0.1,9.7,0,14.5,0
	c2.6,0,3,0.8,1.8,3.1c-2.6,5.2-5.3,10.4-7.9,15.5c-1,1.9-2.5,2.9-4.8,2.9c-4.5-0.1-9-0.1-13.5,0c-6.7,0.1-13.3,0.2-20,0.3
	c-0.5,0-1.1,0-1.6,0c-2.3-0.1-2.8-0.9-1.8-3c1.9-3.8,3.8-7.6,5.8-11.3c0.2-0.4,0.4-0.9,0.7-1.6h-3.7c-3.2,0-6.4,0-9.6,0
	c-1.1,0-1.6,0.3-2.1,1.3c-1.7,3.4-3.4,6.8-5.2,10.2c-1.5,3-4,4.4-7.3,4.5c-3.2,0.1-4.2-1.6-2.8-4.4c3.7-7.4,7.5-14.8,11.3-22.2
	c0.7-1.5,1.6-2.9,2.2-4.4c1.5-3.3,4.2-4.9,7.6-4.9C30.2,0,38.6,0,47,0.1c7.2,0.1-2,5.5-4,5.5c-5.9,0.2-11.8,0.1-17.6,0
	c-1.1,0-1.8,0.3-2.2,1.3C22,9.4,20.8,11.8,19.4,14.5 M68.1,17.7c-0.9,0-1.5,0-2,0c-2.4,0.1-5.3-0.7-7.1,0.4c-1.7,1-2.4,3.9-3.4,6
	c-1.3,2.6-2.6,5.1-4,8c3.1,0,5.9,0,8.6,0c0.3,0,0.8-0.3,1-0.6C63.3,27,65.6,22.5,68.1,17.7 M91.4,5.9c-0.5,0.5-1.2,0.9-1.5,1.5
	c-4.1,7.9-8.1,15.8-12.1,23.8c-1.5,3-3.7,4.9-7.2,4.9c-2.9,0-3.8-1.3-2.5-3.9c3.2-6.3,6.4-12.6,9.6-18.9c1.1-2.3,2.3-4.5,3.6-7.1
	h-4.2c-4.7,0-9.5,0.1-14.2-0.1c-0.9,0-2.5-0.6-2.6-1.2c-0.2-0.9,0.3-2.4,1.1-2.9c1.2-0.9,2.9-1.8,4.4-1.8C91.6,0,117.5,0,143.3,0
	c0.8,0,2,0.5,2.3,1c0.3,0.7-0.1,1.9-0.6,2.6c-1.3,1.8-3.2,2.4-5.4,2.4c-12.1,0-24.2,0-36.4,0c-1.4,0-2.2,0.3-2.9,1.7
	c-3.9,8-8,15.9-12.1,23.8c-1.4,2.9-3.6,4.4-6.9,4.4c-3,0-3.9-1.4-2.5-4c2.8-5.5,5.6-11,8.4-16.5c1.5-3,3.1-6,4.6-9
	C91.7,6.2,91.5,6.1,91.4,5.9 M115.7,32.1h1.9c3.2,0,6.3-0.1,9.5,0.1c6.1,0.3,0.1,3.5-1.8,3.5c-4.4,0-8.7,0-13.1,0c-7,0-14,0-21,0
	c-2.8,0-3.1-0.7-1.9-3.1c2.5-5,5.2-10,7.6-15.1c1.2-2.5,3-3.7,5.9-3.6c4.4,0.1,8.7,0,13.1,0c6.9,0,13.9,0,20.8,0
	c5.4,0.1-0.2,3.5-1.9,3.5c-3.5,0-7,0-10.5,0.1c-0.6,0-1.5,0.4-1.7,0.8c-2.3,4.3-4.4,8.6-6.6,12.9C115.8,31.4,115.8,31.6,115.7,32.1
	C116.4,32.1,115.8,31.6,115.7,32.1 M95.7,32c0.9,0,1.4,0.1,2,0.1c3.4,0,6.9-0.1,10.3,0.1c1,0,1.4-0.2,1.8-1
	c1.7-3.4,3.4-6.8,5.2-10.2c0.6-1.1,1.1-2.2,1.7-3.5c-4.4,0-8.5,0-12.6,0c-0.4,0-1,0.2-1.2,0.5c-0.9,1.7-1.8,3.4-2.8,5.4
	c1.9,0,3.5-0.1,5,0c5,0.5-0.2,3.4-1.8,3.5c-1.3,0.1-2.7,0-4,0c-0.5,0-1.1,0.3-1.3,0.6C97.2,28.9,96.5,30.3,95.7,32
	C96.5,32,96.5,30.3,95.7,32"/>
</svg>
