<svg xmlns="http://www.w3.org/2000/svg" viewBox="0 0 996.2 652.4"><title>Asset 1</title><g id="Layer_2" data-name="Layer 2"><g id="Map"><g id="map-2" data-name="map"><rect x="251.98" y="185.06" width="16.24" height="16.24" style="fill:#03387e"/><rect x="268.22" y="201.29" width="16.24" height="16.24" style="fill:#03387e"/><rect x="333.16" y="201.29" width="16.24" height="16.24" style="fill:#03387e"/><polygon points="414.33 152.59 398.1 152.59 365.63 168.82 300.69 168.82 284.45 185.06 284.45 201.29 300.69 201.29 300.69 217.53 316.92 217.53 316.92 201.29 333.16 201.29 349.39 185.06 365.63 185.06 381.86 201.29 381.86 217.53 398.1 250 414.33 250 414.33 217.53 446.8 201.29 446.8 185.06 414.33 152.59" style="fill:#03387e"/><rect x="349.39" y="217.53" width="16.24" height="16.24" style="fill:#03387e"/><rect x="430.57" y="217.53" width="16.24" height="16.24" style="fill:#03387e"/><rect x="495.51" y="152.59" width="32.47" height="16.24" style="fill:#03387e"/><rect x="463.04" y="250" width="16.24" height="16.24" style="fill:#03387e"/><rect x="592.92" y="185.06" width="16.24" height="16.24" style="fill:#03387e"/><rect x="609.15" y="168.82" width="16.24" height="16.24" style="fill:#03387e"/><polygon points="755.27 298.7 755.27 314.94 787.74 314.94 787.74 266.23 771.5 266.23 771.5 298.7 755.27 298.7" style="fill:#03387e"/><rect x="722.8" y="347.41" width="16.24" height="32.47" style="fill:#03387e"/><rect x="706.56" y="396.11" width="16.24" height="16.24" style="fill:#03387e"/><rect x="722.8" y="412.35" width="16.24" height="16.24" style="fill:#03387e"/><rect x="739.03" y="396.11" width="16.24" height="16.24" style="fill:#03387e"/><rect x="771.5" y="396.11" width="48.71" height="16.24" style="fill:#03387e"/><polygon points="803.97 428.58 771.5 428.58 739.03 444.82 755.27 493.52 787.74 477.29 820.21 493.52 836.44 461.05 803.97 428.58" style="fill:#03387e"/><rect x="852.68" y="493.52" width="16.24" height="16.24" style="fill:#03387e"/><rect x="868.91" y="477.29" width="16.24" height="16.24" style="fill:#03387e"/><rect x="576.68" y="412.35" width="16.24" height="32.47" style="fill:#03387e"/><rect x="235.75" y="201.29" width="16.24" height="16.24" style="fill:#03387e"/><polygon points="349.39 363.64 349.39 347.4 300.69 347.4 300.69 331.17 333.16 331.17 365.63 298.7 381.86 282.47 381.86 266.23 349.39 250 333.16 266.23 316.92 266.23 300.69 250 333.16 233.76 300.69 217.53 284.45 233.76 235.75 217.53 170.81 217.53 154.57 233.76 170.81 266.23 187.04 250 219.51 266.23 235.75 282.47 235.75 314.94 268.22 347.4 300.69 363.64 333.16 379.88 300.69 412.35 316.92 444.82 333.16 461.05 333.16 509.75 333.16 542.23 349.39 542.23 381.86 477.29 398.1 477.29 414.33 428.58 414.33 412.35 316.92 363.64 349.39 363.64" style="fill:#03387e"/><polygon points="755.27 201.29 722.8 185.06 706.56 168.82 576.68 217.53 527.98 201.29 495.51 233.76 495.51 250 479.27 266.23 479.27 282.47 463.04 282.47 463.04 314.94 446.8 331.17 446.8 363.64 463.04 379.88 495.51 379.88 495.51 428.58 527.98 461.05 544.21 461.05 560.45 428.58 560.45 396.11 592.92 363.64 609.15 347.41 609.15 331.17 625.39 331.17 641.62 363.64 657.86 363.64 657.86 347.41 674.09 331.17 690.33 363.64 706.56 379.88 706.56 347.41 739.03 331.17 739.03 298.7 755.27 298.7 771.5 266.23 771.5 250 803.97 250 803.97 266.23 820.21 266.23 820.21 250 852.67 233.76 852.67 201.29 755.27 201.29" style="fill:#03387e"/><rect x="820.21" y="412.35" width="16.24" height="16.24" style="fill:#03387e"/><rect x="755.27" y="331.17" width="16.24" height="16.24" style="fill:#03387e"/></g><g id="kemtech"><path d="M707.3,582.88a9.28,9.28,0,0,1,0-1.16c.27-2.15-.61-4.38.5-6.46,3.33.91,6.85-1.59,10.06.47a2.26,2.26,0,0,0,2.77,0c2.32-1.26,4.88-1,7.32-.36a3.89,3.89,0,0,1,3,3.8c.1,3.47,0,6.94,0,10.41,0,.65,0,1.52-1,1.4s-.79-1-.79-1.61c0-2.89,0-5.78,0-8.67s-1.74-4.41-4.54-4.44c-3.22,0-4.62,1.28-4.66,4.48,0,2.6,0,5.21,0,7.81,0,.86.51,2.39-.78,2.39-1.56,0-.87-1.63-.9-2.55-.1-2.6,0-5.2,0-7.81-.05-3-1.39-4.27-4.24-4.31s-4.8,1.54-4.92,4.19,0,5.59-.06,8.38c0,.79.38,2.06-.83,2.12s-.89-1.23-.91-2c-.06-2,0-4,0-6.07"/><path d="M675.44,582.33c4.31-2,6.49-6.48,11.78-7.59-2.3,3.14-5.19,4.48-7.2,6.77.37.75,1,.38,1.53.41,4.84.24,7.08,3.63,5.46,8.27-.18.5-.39.88-1,.8a.78.78,0,0,1-.67-.81c0-.67-.06-1.35,0-2,0-1.85.23-3.7-2.15-4.48s-4.8-.79-6.88.77c-1.46,1.1-.65,2.88-.85,4.36-.11.78.42,2.06-.8,2.14s-.93-1.22-.94-2q0-9.26,0-18.53c0-.78-.4-2.06.83-2.11s.88,1.26.89,2c0,3.86,0,7.71,0,12"/><path d="M762.24,583.32c0-1.6,0-2.85,0-4.1a3.34,3.34,0,0,1,.82-2.38c2.16-2.46,9.3-2.64,11.46-.2.53.59,1.44,1.39.66,2.19s-1.39-.12-1.88-.69a5.94,5.94,0,0,0-4.72-1.78c-3.25,0-4.57,1.44-4.58,4.78,0,1.06,0,2.12,0,3.18,0,1.94-.3,4.06,2.15,4.78s5.13,1,7.25-1.18c.55-.57,1-1.81,1.95-.81.66.68-.17,1.4-.65,2-2.42,2.85-9.15,3.06-11.59.3-1.68-1.9-.51-4.28-.87-6.06"/><path d="M736.62,582.6c0-1.25-.06-2.51,0-3.75.09-1.46-.17-2.48-2-2.3-.56.06-1.21,0-1.23-.84a.63.63,0,0,1,.73-.68c2.81.39,2.39-1.51,2.51-3.26.08-1.21-.85-3.42.72-3.45,2.09,0,1,2.28,1,3.44-.07,2.36.36,3.75,3.11,3.23.42-.08,1-.09,1.12.58s-.48,1.07-1.07,1c-3.32-.57-3.21,1.54-3.08,3.78a34.68,34.68,0,0,1,0,4.61c-.21,2.61.58,4.34,3.48,4.5.58,0,1.25.13,1.09.95s-.8.68-1.38.69a4.59,4.59,0,0,1-5-4.73c0-1.25,0-2.5,0-3.75"/><path d="M645.77,547.78c6.9-3.85,13.78-7.78,20-12.75,3-2.44,4.79-5.25,4.46-9.42-.36-4.5-.05-9.07-.1-13.6,0-1,.34-2.19-.42-3.52a32,32,0,0,1-9.18,11c-5.4,4.41-11.52,7.7-17.62,11-6.43,3.48-12.89,6.9-19.33,10.35-2.39-1.12-4.79-2.42-7.19-3.54-2-.59-3.42-2.25-5.27-3.17h.15v.36c1.85-1,4-2.11,6-3.13s2.73-2.47,2.6-4.84c-.17-3-.31-6-.31-9v-8.67c-2.77,3.15-6.62,4.9-10.07,6.62a65.74,65.74,0,0,0-10.43,6c-1.08.81-2.08,1.64-2.06,3.23q.11,8.67.2,17.34c-.44,1.85.6,2.89,1.76,4.08a20.84,20.84,0,0,0,5.32,3.68h-.06a2.19,2.19,0,0,1-1.28,2v0c-.92.48-.92,1-1.85,1.79h0a5.07,5.07,0,0,0-1,3.67c0,4.39,0,8.78,0,13.17.24,5.67,3.42,9,8.71,11.09,4.77,1.86,9.68,3.9,13.31,7.85,1.33.49,1.12-.63,1.12-1.22,0-2.47.34-5-.48-7.37,0,0,0-.26,0-.25v-.28h-.46v.51c.92,0,1-.05,1.44-.08,0-.16.07-.31,0-.45-.57-1-.15-2-.23-3.06-.19-2.42.41-4.88-.33-7.28l-.46-.14-.18-.21c-.07-.33-.15-.66-.25-1a3.43,3.43,0,0,0-.54-1.2c-2.06-1.58-4.77-1.88-6.81-3.49l5.19-2.63.21.12a2.76,2.76,0,0,0,2.56-.91l.19.12c1.64.79,3.26,1.6,4.84,2.51.86.5,1.77,1.19,2.82.4,0,1.22,1,1.23,1.93,1.23a126.56,126.56,0,0,1,12.12,6.61c1.12,2.2,3.42,2.81,5.35,3.88a1.4,1.4,0,0,0,1.54,0c1.43,3.12,4.59,4.06,7.22,5.66,2.69,2.47,5.49,4.86,6.7,8.5.26.26.53.75.79.74.79,0,.38-.7.38-1.06,0-5.86-.08-11.72.08-17.57a7.14,7.14,0,0,0-2.48-5.82,78,78,0,0,0-13.28-9.56c-3.34-1.88-6.68-3.61-10-5.48v.15h0c1.29-1.85,3.07-2.08,4.65-3" style="fill:#ffab36"/><path d="M700.76,588.67c-2.3,1-4.62,1.31-6.92,0a2.54,2.54,0,0,1-1.48-2.86c.33-1.32,1.57-.78,2.45-.84,1.91-.12,3.86.24,5.7-.59s3.39-2.13,3.34-4.54a4.7,4.7,0,0,0-3.29-4.6c-6-2.4-10.08.7-10.08,7.65,0,5.82.83,7.39,4.59,8.23a9.66,9.66,0,0,0,6.48-.78c.73-.36,1.91-.69,1.34-1.79s-1.41-.17-2.15.16m-5.58-12a15.4,15.4,0,0,1,2-.4c2.53-.15,4.79,1.44,4.93,3.41s-1.49,3.31-4.38,3.48c-.57,0-1.15,0-2,0-.92-.45-3,1.14-3.36-1.42-.29-2.34,0-4.5,2.88-5.07"/><path d="M749.5,584.91c1.34-.06,2.7.07,4-.07,3-.32,5.14-2.33,5.3-4.82s-1.33-4.3-4.45-5.17c-5.65-1.58-8.91,1.24-8.91,8.05.42,1.87-.85,4.3,1.06,6.29,2.22,2.3,7.46,2.85,10.18.94.57-.4,1.59-.82,1.09-1.73s-1.28-.16-1.92.17a7.55,7.55,0,0,1-7.2.11,2.39,2.39,0,0,1-1.39-2.61c.17-1.48,1.31-1.12,2.2-1.16m-2.29-4.18c.15-3,1.61-4.45,4.94-4.47,2.53,0,4.89,1.66,4.91,3.48,0,2.26-1.93,3.39-6.1,3.46-1.55-.2-3.93.92-3.75-2.47"/></g><g id="sinoz"><path d="M883.54,596.82c17.46-14.05,38.16-20.08,59.86-23.76,0,1.67-1.46,1.62-2.37,2.09-1.09.56-2.26.94-3.39,1.43-11.34,4.88-22.35,10.27-30.27,20.25-.59.74-1.17,1.47-2.2,1.47H883.72Z" style="fill:#0eaebf"/><path d="M967.5,628.61c-17.4,14-38,20.21-60,23.8.44-2.17,1.9-1.9,2.91-2.32,12.36-5.13,24.55-10.54,33.21-21.39a4.11,4.11,0,0,1,3.63-1.47c6.58,0,13.15,0,19.73,0l.5,1.37" style="fill:#0eaebf"/><path d="M916.74,609.46c-4.62,3.63-2.67,12.26-11.33,13.37,3.09-6.67,5.9-12.46,8.44-18.36,1-2.37,2.81-1.94,4.59-2,2.39,0,2,1.82,2.15,3.28.32,3.18.62,6.36,1.07,10.94,2.18-4.6,3.81-8.11,5.5-11.58.52-1.05.72-2.52,2.26-2.62a4.4,4.4,0,0,1,2.64.4c.69.49-.06,1.36-.37,2-2.39,5.16-4.92,10.26-7.11,15.5-1.09,2.61-3,2.19-5,2.06-2.36-.15-1.72-2.15-1.89-3.53-.39-3.14-.67-6.29-1-9.53"/><path d="M898.54,604.21c-.23,2.33-2,1.87-3.47,1.89-2.91.05-5.84-.08-8.73.15a3,3,0,0,0-3,3c.08,2.14,2,1.24,3.22,1.46a8.92,8.92,0,0,0,.92,0c2.62.21,6.29-1,7,2.57s-1.51,6.32-5.08,7.67a5.16,5.16,0,0,0-1.09.78c-5.09.5-10.17.79-15.24-.16a1.91,1.91,0,0,1,.76-1.91c4.09-.9,8.3.31,12.39-.67,1-1.19,3.47-1.63,2.51-3.76-.76-1.68-2.74-.76-4.18-.91-.91-.1-1.83,0-2.75,0-4.17-.31-5.5-2.5-3.53-6.09,1.5-2.73,3.44-5.07,7-5.14,4.38.79,9-1.06,13.26,1.17"/><path d="M961.94,619.48c1.45,0,2.91-.06,4.36,0,.79,0,2-.39,2,1.07a1.81,1.81,0,0,1-1.63,1.91c-3.82.1-7.81.74-11.41-.15-2.66-.65-.33-2.68.75-3.48,3.17-2.35,6.52-4.46,10.65-7.22l-7.24-.49c-.16-2.44,1.16-3,3.13-3,2.6.05,5.2,0,7.8,0,1.12,0,2.84-.74,3.21.77s-1,2.46-2.15,3.24l-9.74,6.41.3.83"/><path d="M909,603.65l-.77,1.67c-2.32,5-4.75,9.94-6.93,15-.93,2.16-2.52,3-4.29,2s0-2.41.48-3.44c2-4.63,4.24-9.15,6.3-13.75.74-1.66,1.5-3,3.63-2.71.78.11,1.52.17,1.59,1.18"/><path d="M898.54,604.21c-4.38-.79-9,1.12-13.26-1.17,4.1-.93,8.25-.22,12.37-.41,1,0,1.91.31.89,1.58" style="fill:#757575"/><path d="M949.82,602.38c-7.53-.82-13.73,3.47-16.77,11.58-2.24,6-.3,8.8,6.09,8.78,7.53,0,13.51-5,15.7-13.14,1.18-4.36-.47-6.73-5-7.22m.42,7.6c-1.57,5.51-5.22,9.28-9.42,9.41-3.12,0-4.57-1.16-3.57-4.55,1.65-5.62,5.23-9.15,9.58-9.12,2.85,0,4.34,1,3.42,4.25"/></g><g id="sinoz-line"><circle cx="814.77" cy="461.13" r="11.08" style="fill:none;stroke:#1966cb;stroke-miterlimit:10;stroke-width:5px"/></g><g id="kemtech-line"><circle cx="752" cy="461.13" r="11.08" style="fill:none;stroke:#1966cb;stroke-miterlimit:10;stroke-width:5px"/><line x1="752" y1="461.13" x2="685.43" y2="527.71" style="fill:none;stroke:#1966cb;stroke-miterlimit:10;stroke-width:5px"/></g><g id="china"><path d="M818.17,66.46c2.09-1.61,4.5-.68,6.75-.74,7.21-.19,14.42-.14,21.64-.19q46.66.08,93.32.15c11.11,0,22.22-.1,33.32-.15,6.3,0,12.61.05,18.91.18,1.37,0,2.95-.68,4.09.74-1.47,1.09-3.16.53-4.74.54-20.19,0-40.37,0-60.56,0-7.39,0-14.84.83-22.14.64-29.5-.78-59-.55-88.5-.65a2.73,2.73,0,0,1-2.08-.55" style="fill:#a30700"/><path d="M877.89,38.1a17.33,17.33,0,0,1-.08,3.09c-1.23,6-1.25,6,4.64,6,3.55,0,7.11-.08,10.66,0,1.28,0,3.47-.86,3.45,1.45,0,2-2,1.19-3.2,1.21-5.18.08-10.37,0-15.55,0-3.14.06-4.84-.85-4-4.4a38.84,38.84,0,0,0,.51-4.85c.8-4.63.89-4.69,3.6-2.59" style="fill:#a30700"/><path d="M942.93,46.79c5,.1,10,.18,15,.3,1.13,0,2.68-.22,2.47,1.59-.17,1.42-1.57,1-2.5,1-5,.06-10,.06-15.05.08-1.7-.92-3.38.21-5.08,0-.82-.09-1.9.2-2.14-.9-.31-1.4,1.11-1.41,1.86-1.94.95-1.48.29-3.11.46-4.67.24-2.15.94-3.45,3.32-2,1.72,1.87.46,4.5,1.63,6.51" style="fill:#a30700"/><path d="M952.69,28.12c1,2.52,3.26,1.78,5.19,1.9.93.06,2.33-.39,2.49,1,.21,1.82-1.38,1.47-2.47,1.55-2.27.16-5.61-.91-4,3.58-2.23,1.2-2.2-2.77-4.31-1.87-1.25.46-2.33,1.35-3.64,1.6-2.62.51-4.15-.15-3.16-3.23,1.3-.59,1.33-1.84,1.53-3s1.1-2,1.7-1.43c2.4,2.27,4.48-.07,6.69-.13" style="fill:#a30700"/><path d="M984.83,28.23c2.29-.52,4.18,1.1,6.37,1.2a1.24,1.24,0,0,1,1.23,1.48c-.09.95-.86,1-1.6,1.12-.15,0-.3,0-.44,0-6.76.91-6.76.91-6.35,7.75-.7,3,.74,6.25-.92,9.17-1.92-1.52-1.3-3.7-1.43-5.67s.47-3.85-1.33-5.26a10.78,10.78,0,0,1-.21-1.29c-.16-3.79-.82-7.85,4.69-8.53" style="fill:#a30700"/><path d="M896.21,28.5C893,35.78,888.62,38,881.83,36c-.8-.24-1.38-.5-1.37-1.39a1.21,1.21,0,0,1,1.48-1.24c4.43.49,8.07-.46,10.49-4.7.55-1,2.44-.38,3.78-.14" style="fill:#a30700"/><path d="M972.37,37.23l-2.76-1.87c-.06-1.17.37-2.81-.24-3.43-4.3-4.34-.28-3.46,2.15-3.6a8,8,0,0,1,2.21,0c1.57.36,4.1-1.13,4.58,1.14.56,2.67-2.18,1.42-3.46,2-1.59.66-1.92,1.71-.74,3.07l.73,2.86a1.91,1.91,0,0,1-2.48-.16" style="fill:#a30700"/><path d="M877.89,38.1c-3.34-2.11-2.34,1.8-3.6,2.59.19-2,.47-4.07.55-6.11,0-1,.82-2.49-.79-3-1.24-.41-2.58-1-1.69-2.31,1.24-1.88,3.47-.72,5.26-.9,1.39-.14,1.75.73,1.42,2-.67,2.55,0,5.3-1.15,7.78" style="fill:#a30700"/><path d="M883,38.44c2.46-.48,4.33-.56,5.86,1a7,7,0,0,0,5.93,2.45c.9-.09,1.88.14,1.92,1.32.06,1.52-1.11,1.36-2.16,1.51-5.16.75-8.19-2.41-11.55-6.29" style="fill:#a30700"/><path d="M980.35,38.05c2.24-.18,2.69,1.13,2.66,3,0,2.63.06,5.27.1,7.91a3.81,3.81,0,0,1-4.58.34c-1.32-2.05,1.52-1.54,1.65-2.69q.08-4.29.16-8.58" style="fill:#a30700"/><path d="M941,40.72c-2.32-1-2.36.61-2.53,2.13s.44,3-.91,4.1c-.68-3.11,1.48-6.68-1.7-9.46-.7-.61-.45-2,1.14-2.07,1.33,0,2.66,0,4,0a3.09,3.09,0,0,1,1.25,3,4,4,0,0,1-.31,1.33,2,2,0,0,1-.94,1" style="fill:#a30700"/><path d="M957.19,61.1c-.27.87.62,2.74-1.31,2.41a3.85,3.85,0,0,1-3.42-3.85c-.18-1.88.49-1.93,1.8-2,2.48-.15,3,1.36,2.93,3.44" style="fill:#a30700"/><path d="M914.72,63.57c-.8-2.5-1.77-4.92-.59-7.47.42-.9,1.12-1.59,2-1.23,1.74.7-.41,1.18-.23,1.77.76,2.48-.73,4.61-1.21,6.93" style="fill:#a30700"/><path d="M980.2,46.63l-1.65,2.69-.9,0q0-7.29,0-14.58c1.47,3.07.32,6.35.76,9.5.15,1.1-.65,3,1.81,2.41" style="fill:#a30700"/><path d="M900.07,61.22c.51-2.05,2.46-2.74,3.29-1.29,1.65,2.89,1.57-1.64,2.7-.06-.06,1.32-.16,3.3-1.82,3.61-1.86.36-1.05-2-1.81-2.9s-1.17.05-1.55.63a.49.49,0,0,1-.81,0" style="fill:#a30700"/><path d="M966,58.57c.29,1.63-.87,3.76,2.29,4.47-2.52,1.24-4,.19-4.55-1.19-.6-1.56.39-2.95,2.28-3.26Z" style="fill:#a30700"/><path d="M976.71,62.25c-.61,1.77-2.27,1.18-3.5,1.56-2.15-1.75-2.82-3.5,0-5.25l-.05,0c1.18,1.22,2.28,2.53,3.56,3.65" style="fill:#a30700"/><path d="M939.48,31.8c-1.13.07-2-.13-2.09-1.55s.47-2.13,2-2.09c1.26,0,1.85.48,1.86,1.79s-.43,1.94-1.76,1.86" style="fill:#a30700"/><path d="M894,61.8c-3.2,2.75-3.28-2.58-5.56-1.46a2.54,2.54,0,0,1,.88-2.39c1.05-.67,1.74.06,1.85,1,.17,1.59,1.26,2.33,2.84,2.82" style="fill:#a30700"/><path d="M932.93,63.86c-1.27-1.72-.61-3.35-.75-4.88-.09-.94.39-1.38,1.28-.9.53.29,2.18.19,1.13,1.31-1.22,1.3.25,3.24-1.66,4.47" style="fill:#a30700"/><path d="M876.93,60.32c-.2-1-.48-2.17.85-2.57,1.15-.34,1.44.67,1.69,1.52a8.69,8.69,0,0,0,.28,1.28c.36.75,3,.42,1.32,2-1.22,1.12-2.35,0-2.54-1.66-.14-1.18-1.26-.07-1.69-.64Z" style="fill:#a30700"/><path d="M941.61,58.28c-2.44,1-1.22,3.69-2.76,5.06.65-1.86-3.27-5.54,2.76-5.06" style="fill:#a30700"/><path d="M876.84,60.24c.31,1.32.41,3.5-.93,3.22-2.78-.58-2.09-3.45-2.58-5.49,2.34-.52.8,3.84,3.61,2.36Z" style="fill:#a30700"/><path d="M924.94,58.21c3.71-.74,5.53.68,4.56,3.58-.35,1.05-1.12.61-1.78.25l-.48-.33a12.72,12.72,0,0,0-2.49-2.36,2.43,2.43,0,0,1,.2-1.14" style="fill:#a30700"/><path d="M900.07,61.22h.81c.16.91.23,1.89-.78,2.28s-1.59-.44-1.85-1.32c-.41-1.37-1.44-2.63-.77-4.27,2.24.05.88,2.91,2.59,3.31" style="fill:#a30700"/><path d="M924.94,58.21l.24,1.46c1,.64,1.46,1.91,2.57,2.49l0-.11c-.24,2.79-2.17,1.73-3,.93-1.6-1.45-1.79-3.29.27-4.77" style="fill:#a30700"/><path d="M920.16,63.31c-1-4.45-1-5,0-8.54.91,3.16.4,5.93,0,8.54" style="fill:#a30700"/><path d="M947.34,58.55c1.41.71,1.35,1.32-.13,1.82a1.36,1.36,0,0,1,.13-1.82" style="fill:#a30700"/><path d="M947.34,58.55l-.13,1.82h-.63a1.24,1.24,0,0,1-.27-1.75l1-.07" style="fill:#a30700"/><path d="M946.31,58.62l.27,1.75c-1.18-.41-1.1-1-.27-1.75" style="fill:#a30700"/><path d="M818.17,66.46q63.87.06,127.74.1c16.76,0,33.53-.08,50.29-.12-2.87,2.19-6.17.56-9.24,1a41.23,41.23,0,0,1-4.84.16l-68.68,0a30.82,30.82,0,0,1-20.5,0H830.5c-4.07-.76-8.38,1-12.33-1.15" style="fill:#a30700"/><path d="M943.21,38.7c-1.18-3.18,1.23-2.57,2.82-2.54,2.44,0,4.53-.1,3.89-3.44,3-.82,2.27,2.72,4,3.43a33.12,33.12,0,0,1,3.52-.16c1.08.06,2.65-.57,3,1,.42,1.77-1.19,1.63-2.3,1.8s-1.16,1.09-1.21,2c-.16,3,2.81,1.38,3.8,2.65-.68,3.84-3.61,1.85-5.57,2-2.19.17-1.94-1.76-1.88-3.16.09-2.33,0-4.28-3.24-3.27-2.33,1.51-4.62,2-6.81-.26" style="fill:#a30700"/><path d="M989.2,74.6a3.1,3.1,0,0,1,3.93-1.83c1.91.41,1,1.28.58,2.2-.22.5-.48,1.48-.33,1.56,1.76,1,2,2.64.74,3.8s-1.45-2.13-3.06-1.26c-1.57-1.1-.13-3.44-1.85-4.47" style="fill:#a30700"/><path d="M949.86,40.16c-.62,3.91-2.18,6.64-6.85,5.48a1.84,1.84,0,0,1-.33-2.55c2.19-1.48,3.4-5.37,7.18-2.93" style="fill:#a30700"/><path d="M972.67,81.56a.27.27,0,0,0-.21-.38c.4-1.27-.61-2.81.72-3.91q.06-2.13.12-4.26c1-.31,2.18-1.33,2.86.48,2.24,2.65,1.94,4.8-1.25,6.39l-2.24,1.68" style="fill:#a30700"/><path d="M959.82,80.86c-.51-2,1.48-2.46,2.34-3.62,1.35-1.1,2.7-2.26,4,0,2.25,2.08-3,2.37-1,4.37-2.72.43-1.17-2-2-2.95-1.55,0-1.19,3.07-3.31,2.18" style="fill:#a30700"/><path d="M977.67,72.82c1.65.21,4.53-1.19,3.46,2.62-1.69,1.45-.33,3.85-1.69,5.39l-1.68.85c-1.74-2.93-.54-5.9-.1-8.86" style="fill:#a30700"/><path d="M979.44,80.83a29.21,29.21,0,0,1-.62-4.51c0-1.8,1.15-1.58,2.31-.89,2.29,1.61-1.1,4.19.93,6.12l-2.62-.72" style="fill:#a30700"/><path d="M985.75,58.6c-5.8-1.57-2.2,4.15-4.65,5.29a5.05,5.05,0,0,1-.29-5.64c.88-1.22,3-.64,4.94.36" style="fill:#a30700"/><path d="M989.2,74.6c3.72.21,1.62,2.82,1.85,4.47-1.52.08-3.24.53-4-1.33-.88-2.06,3.34-.76,2.18-3.14" style="fill:#a30700"/><path d="M976.71,62.25c-4.18,1.7-3.26-1.56-3.56-3.65,3.68-1.22,3.65,1.19,3.56,3.65" style="fill:#a30700"/><path d="M977.67,72.82l.1,8.86-2.85-1.79c1.81-1.86,1.37-4.15,1.25-6.39l1.51-.68" style="fill:#a30700"/><path d="M989.54,64.11c-2.05-2,0-4.85-3.26-6.28,4.34.64,4.48,1,3.26,6.28" style="fill:#a30700"/><path d="M941.26,39.82c1.16.92.19,2.81,1.65,3.59l.09,2.22-.08,1.15c-3.35-1.15-1.12-4.11-2-6.07l.31-.9" style="fill:#a30700"/><path d="M866.37,74.71c1.82-4.88,4.22.81,6.42-.54-1.25,2.26-2.68,4.12-2.47,6.74.08.94-1,.65-1.57,0-2.49-1.43-2-4-2.39-6.22" style="fill:#a30700"/><path d="M859,73.41c1.89,1.75,2.12,4,1.92,6.38-1.66,2.47-3.48,2-5.36.28-1-5.47-.55-6.27,3.43-6.65" style="fill:#a30700"/><path d="M848.3,77.25l-.13,1c-1.51,2-3.36,2-5.42,1-1.72-1.27-2.85-2.71-1.41-4.9l1.72-.49c2.18.46,5.28-.5,5.24,3.39" style="fill:#a30700"/><path d="M884,80.84c-1.48,1.43-2.91-.08-4.36-.07,2.32-1.06-2.53-6.88,3.59-5.42.36.62.52,1.33.85,2q.3.45.61.88l.13-.18.2.1c.43,1.2-.47,1.89-1,2.72" style="fill:#a30700"/><path d="M895.61,72.78a1.18,1.18,0,0,0,.67.25c-.07,2.32,1.51,4.41.92,6.8a3.64,3.64,0,0,1-.7,1c-2.63.45-4.33-1.9-3.6-3.18.88-1.56-1.56-5.35,2.71-4.85" style="fill:#a30700"/><path d="M841.33,74.35c.4,1.49-.15,3.42,1.9,4.16a1.54,1.54,0,0,1-.54,2,3.18,3.18,0,0,1-4.12-.69c1.85-2.26.45-5.37,2-7.71a2.25,2.25,0,0,1,.76,2.26" style="fill:#a30700"/><path d="M906.23,77.27l1-1.73c1.4-.7,2.23,0,2.88,1.15-.48.73.19,1.59-.25,2.33-.39,1.34,0,3.79-2.67,1.82l-1-3.57" style="fill:#a30700"/><path d="M859,73.41c-4.59.42-2.39,4-3,6.32-.35,1.11-.8,1.9-1.9.6.38-2.54-1.85-5.6,1.48-7.56,1.16,0,2.44-.55,3.38.64" style="fill:#a30700"/><path d="M842.95,80l.29-1.51c1.7.9,3.31.17,4.93-.27,1.73,5.18-2.82,2.35-4.33,3.39l-.37.07h-.38a1,1,0,0,1-.14-1.68" style="fill:#a30700"/><path d="M896.5,80.81l.21-1.31c1-1.88-1.16-4.12.67-5.91,1.71-1.39,3.07-.18,4.58.32-.77,1.74-4-.87-3.51,2.47-.72,1.45,1,4-2,4.43" style="fill:#a30700"/><path d="M884,80.84c-.73-1.31.65-1.83,1-2.72,1,1.3,4.44.44,3.76,2.61-.82,2.62-3.14-.87-4.79.12" style="fill:#a30700"/><path d="M855.67,72.77a12.24,12.24,0,0,0-.89,7.83q.53.67-.25,1c-2.32-6.09-2.23-6.78,1.14-8.84" style="fill:#a30700"/><path d="M848.3,77.25c-.61-2.89-3.65-2-5.24-3.39,1.06-1.76,3.13-.16,4.38-1.31.74,1.48,2,2.87.87,4.7" style="fill:#a30700"/><path d="M866.37,74.71l2.39,6.22c-1.51.21-3.11.66-2.62-2a31.38,31.38,0,0,0,.24-4.26" style="fill:#a30700"/><path d="M854.53,81.61l.25-1,1.31-.87c1.61,1.6,3.23,1.79,4.88.05.73.61,2.19,1.49.08,1.84a36.49,36.49,0,0,1-6.52,0" style="fill:#a30700"/><path d="M884.33,78.15c-2-.31-2-1.36-1.08-2.8.78,0,1.65-.18,1.65,1-.55.47-.39,1.17-.56,1.75" style="fill:#a30700"/><path d="M884.33,78.15c-.11-.68-.59-1.48.56-1.75l-.19,1.81Z" style="fill:#a30700"/><path d="M834.84,80.95c-1.5,1.68-3.55.29-5.23.95-4.74,1-3.76-3-4.4-5.28-.8-2.83.29-4.36,3.58-3.9a48.11,48.11,0,0,0,6.17.1c-.67,2.71-.2,5.43-.08,8.15Z" style="fill:#a30700"/><path d="M835.89,73.73c2.67,2.48,2.94,4.62-.87,6.19-.58-2.18-1.41-4.41.87-6.19" style="fill:#a30700"/><path d="M835.89,73.73c-1.24,1.93-.84,4.09-.87,6.19l-.14,1-3.19-.28c3.32-2.56,3.35-2.84,1-6.29,0,0,1.45-1,2.22-1.58l.93.92" style="fill:#a30700"/><path d="M842.95,80l.14,1.68c-2.52,1.8-4.65,2.66-4.51-1.89Z" style="fill:#a30700"/><path d="M939.39,79c-2.05-.45-3.76-.36-3.49,2.74-2.33-2.53-1.87-5.3-1.9-8,0-1.89,1.38-.8,2.07-.95,1.1-.24,1.27-.2.68,1.23-.93,2.24,1.68.94,2.47,1.63a3.35,3.35,0,0,1,.47,2.82l-.3.51" style="fill:#a30700"/><path d="M950.93,80.68c-3,1.93-4.88.63-4.36-2.36.35-2-1.29-4.83,1.65-6.16.83,1.86,1.82,3.64,2.59,5.53a3.68,3.68,0,0,1,.11,3" style="fill:#a30700"/><path d="M924.58,76.44c-1.61.64-3,1.54-2.91,4.09-2-2.14.5-4.5-1.74-6-1-.66.59-1.3,1.25-1.72,2.16-1.35,2.13,1.06,3.07,1.81a1.75,1.75,0,0,1,.33,1.85" style="fill:#a30700"/><path d="M925.76,74.59c.49-.93,1.23-2.1,2.15-2,1.37.22.76,1.69.73,2.6-.07,2.18.54,4.49-.93,7.39-1.09-2.54-1.92-4.24-2-6.22a1.61,1.61,0,0,1,0-1.82" style="fill:#a30700"/><path d="M950.28,78.5a10,10,0,0,1-2.05-6.35c1.19.77,1.15,3.26,3.88,2,1.48-.67,2.82,1.11,2.54,3.13-1.29,1-2.66,1.74-4.38,1.2" style="fill:#a30700"/><path d="M909.93,77.25c-.82-.7-1.32-1.89-2.7-1.7l-2.58-2.24h7.87q0,1,.06,2c-.46,1.22-1,2.3-2.66,1.92" style="fill:#a30700"/><path d="M966.19,77.26a4.82,4.82,0,0,0-4,0c1.32-2.34-1.93-1.07-1.91-2.53l8.68-.39c-.7,1.59-2.78,1.31-2.75,2.95" style="fill:#a30700"/><path d="M950.28,78.5c1.2-1.34,2.88-.92,4.37-1.2-.58,1.85.17,5.17-3.72,3.37l-.65-2.17" style="fill:#a30700"/><path d="M915.2,79.05c0,.89,0,2-1,2.15-1.23.13-1.9-1-2.51-2-.63-3.53,1.38-2.82,3.39-2.11l.14,2" style="fill:#a30700"/><path d="M915.06,77.1c-1.58,0-3.44-.48-3.4,2.11l-1.8-.19c-.08-.59-.92-1.22.06-1.77a4.68,4.68,0,0,1,2.66-1.92c1,.34,2.86-.51,2.47,1.77" style="fill:#a30700"/><path d="M939.29,74.84c.68-1.26.68-1.19,1.16-1.2,1,0,1.63.32,1.6,1.47,0,1.74,0,3.49,0,5.35-1.1-.26-2.3,0-2.65-1.45l0,.12c.53-1.44,1.27-2.87,0-4.29" style="fill:#a30700"/><path d="M939.29,74.84c1.5-.5,1.81.33,1.76,1.57s.52,2.86-1.72,2.72c-1-1.11-1.57-2.24-.12-3.44a2.61,2.61,0,0,1,.08-.85" style="fill:#a30700"/><path d="M973.18,77.28c.14,1.37.25,2.74-.72,3.91-.33-1-2.28-.67-1.89-2.39.36-1.57,1.48-1.46,2.61-1.52" style="fill:#a30700"/><path d="M925.76,74.59l0,1.82-1.16,0-.33-1.85h1.51" style="fill:#a30700"/><path d="M853.36,33.95a4.66,4.66,0,0,1-2.6-.68c.06,1.75,1.22,2,2.86,1.65,1.51.32,3,.47,3.8-1.14a19.2,19.2,0,0,1-4.06.17" style="fill:#a30700"/><path d="M859.59,29.25a54.49,54.49,0,0,0-4.6-4c-11.06-7.74-27.51-3.3-32.47,11.91-.31,5-.61,10,1.91,14.71,5,9.24,13,12.25,23,11.35,16.17-5.51,21.08-19.25,12.14-34M855.75,42h.19c3.21,2,3.25,5.52,4.14,8.63-3.64,7.42-9.7,11-17.84,10.6-7.73-.37-13.32-4.23-16.36-11.5,1.49-2.36-.66-5.2.51-7.61a1.49,1.49,0,0,1-1.88.19,17.87,17.87,0,0,1,17.56-18.47c7.53-.71,13,2.65,17,8.73a11.43,11.43,0,0,1,2.6,8.1c-1.49,2.68-3.89,1.17-5.93,1.32" style="fill:#a30700"/><path d="M841.89,42.8a2.05,2.05,0,0,1-.83.8c-2-.86-3.93-2.63-6.35-1a4,4,0,0,1-3.33-.21,11,11,0,0,1,1.46,1.65c1.18,4,4,1.88,6.25,1.64a8.12,8.12,0,0,0,5.49.32,2.69,2.69,0,0,0,1.95-2.29c.54-1,1.37-2.07,2.27-.73,2,3.06,3.55,2.38,5.18-.26a1.64,1.64,0,0,1,1.29-.72c-4.11-.18-8.31.28-12.18-1.6-.78.61-.79,1.59-1.19,2.38" style="fill:#a30700"/><path d="M855.46,41.46c1.9-1.66,4.32.91,6.22-.76-.36,3.35.87,6.95-1.59,10-1.63-1.46-3.11-2.95-2.85-5.44a2.64,2.64,0,0,0-1.77-2.7q-.4-.35-.27-.7t.26-.35" style="fill:#a30700"/><path d="M824.51,42.34l2.43-.74c1.69,1.34-1.4,5.46,3.19,4.86-.71,2.47-3.26,1.78-4.24,3.29-.87-2.39-1.9-4.76-1.38-7.41" style="fill:#a30700"/><path d="M913.46,41.62l0-1.76c1.5,0,3.07-.36,5,.75-1.81,1.37-3.45.78-4.9,1" style="fill:#a30700"/><path d="M977.63,34.72a6.07,6.07,0,0,0-3.51-.18c-.65.86-.44,1.84-.42,2.79l1.15.08c-.06,2.66-.11,5.32-.17,8,0,.94-.26,1.9-1.39,1.86-1.28,0-1-1.21-1-2,0-2.66.08-5.32.13-8l.81.05c0-.14-.08-.29-.14-.43-.81-1.26-1.79-2.13-3.43-1.49L968,38.14c-1,2.37,1.12,4.45.61,6.8-1,4.49,1.3,5.58,5.25,5,1.28-.19,2.63.13,3.82-.64a45.48,45.48,0,0,0,0-14.58" style="fill:#a30700"/><path d="M928.5,41.72h0l-7.93-.45c3.24-2.21,5.74-1,7.93-1.57a1.76,1.76,0,0,0-1.45-2.38h0l-.14-.9A2.89,2.89,0,0,0,928.48,33c-.22-1.42,1.06-3.65-1.41-4s-1.75,1.78-1.88,3.11c-.1,1.08-.53,1.65-1.67,1.48s-1-1.22-1.11-2.05c-.24-1.24.88-3.31-1.7-3.23-2.1.06-1.49,1.77-1.63,3-.11,1,.26,2.21-1.31,2.36-1.85.18-1.78-1.14-1.74-2.33.07-1.89-.47-2.92-2.57-2.1l-1.82-.11h0a1.84,1.84,0,0,0-.6-.3c-1.86-.8-3.86-.2-5.78-.25-1.7,0-2.1,1.9-1.18,2.3,3.87,1.69,1.94,4.52,1.82,7h0c-2.2-.14-3.07,1.12-1.14,2.21s1.3,2.23,1.71,3.51c.94,2.92-2.14,3.68-2.77,5.71,1.67.85,3.47.55,5.23.55.42,0,.89.06,1.36.09H911a1.5,1.5,0,0,0,1.32-.67c1-1.75-1.18-1.45-1.82-2.19-2-2.31-.3-6.45,3.06-7.51l-.1.25a1.16,1.16,0,0,1,0,1.76c-.08,1.76-.25,3.53-.22,5.29,0,1.18-.62,2.95,1.57,2.91,1.85,0,1.33-1.56,1.42-2.64a7.57,7.57,0,0,1,.44-2.59c-.95,5.82,2.69,5.44,6.17,5.29,1.62-.07,3.24-.11,4.86-.16,1.62-2.53.71-5.31.79-8m-15.17-3.77a1.32,1.32,0,0,0,0-.13l.19-.05a.51.51,0,0,0-.14.19" style="fill:#a30700"/><path d="M927.74,62.16c-2.86,1.24-2.52-.83-2.57-2.49,4.2-2.62,2.21,1.14,2.57,2.49" style="fill:#a30700"/><path d="M897.38,73.59c-.15,2,.71,4.07-.67,5.91,1-2.23-4-4.06-.44-6.47a.83.83,0,0,1,1.11.56" style="fill:#a30700"/><path d="M855.46,41.46v1.05c-.41.39-1.22.85-1.17,1.17.42,2.54-1.2,3.07-3.09,3.24-2.11.18-2.87-1.12-2.93-3,0-.13,0-.36-.11-.38-.71-.21-.57.42-.72.76-1.55,1.11-2.29-.14-3.13-1.08-.72-1.44-2-2.59-2.23-4.29.09-.11.26-.32.27-.32,3.92,3,8.92,1.09,13.11,2.87" style="fill:#a30700"/><path d="M834.09,41.67c3-2.09,5.37-1.84,7.08,1.6a1.73,1.73,0,0,1,.45,1.81c-.49.83-1.12,1.36-2.16,1-4,3.19-6.48,2.62-7.47-1.74a3.49,3.49,0,0,0,2.09-2.65" style="fill:#a30700"/><path d="M841.11,45.3l.06-2a5.27,5.27,0,0,1,.1-.87,2.33,2.33,0,0,1,3.19-.12c1.09.52,1.49,2.05,3,2,.17,1.84-.54,2.88-2.52,2.76-1.15-.84-3.27.47-3.81-1.73" style="fill:#a30700"/><path d="M834.09,41.67c.52,1.18,1.5,2.53.4,3.63s-1.49-1-2.48-1c-1.07-.7-2.45-1.12-2.52-2.73,1.57-2,3,1.74,4.61.08" style="fill:#a30700"/><path d="M843.87,50.53c4.07-.55,8.12-1.45,12.29-.12-4.11-.33-8.09,1.7-12.27.11Z" style="fill:#a30700"/><path d="M837.6,54c2.88-2.26,5.84-2.16,9.76-.22-3.86,0-6.85-1.18-9.76.22" style="fill:#a30700"/><path d="M841.11,45.3c.85,1.49,3.47-.9,3.81,1.73-1.81-.35-4.21,2.55-5.45-1l1.64-.75" style="fill:#a30700"/><path d="M843.88,50.51c-3-.27-6.18,2.41-9.05-.67,2.92,2,6.14-1.72,9,.69Z" style="fill:#a30700"/><path d="M841.47,56.59c-2.91,2-4.52-.33-6.46-.16a8.85,8.85,0,0,1,6.46.16" style="fill:#a30700"/><path d="M855.34,53.86l-6.17.9c2.07-1.71,2.07-1.71,6.17-.9" style="fill:#a30700"/><path d="M842.44,37.3c-.22-1.81-1.29-3.56.55-4.43a4.81,4.81,0,0,1,4.19.2c1,.78.38,2.58-.21,3.89-2-.24-.45-2.6-2.11-3-1.83.21-.43,2.43-2.42,3.34" style="fill:#a30700"/><path d="M850.14,32.7l3.56.06c1.35.89,2.35,1.77,0,2.61-1,.91-1.66,2.75-3.43,1.49s-1-2.75-.11-4.17" style="fill:#a30700"/><path d="M853.68,35.37c1.32-.86.33-1.74,0-2.61,1.54,0,3.21-.69,4.48.82-.42,1.13.67,2.89-.89,3.41a3.13,3.13,0,0,1-3.62-1.61" style="fill:#a30700"/><path d="M834.88,36.94c-1.17-2-.82-4.05-.77-6.85,2.49,2.56,1.72,4.71.77,6.85" style="fill:#a30700"/><path d="M829.88,37.13c-.14-.56-.41-1-.31-1.36.44-1.58-1-3.53,1-4.74,0,0,2.32-.33,1.13.59-1.76,1.36,1.46,3-.78,3.86-.27.1.18,1.15-1,1.66" style="fill:#a30700"/><path d="M844.47,42.28l-3.19.12c-.22-1.28-.42-2.55.8-3.5,1.28.79,2.73,1.45,2.39,3.38" style="fill:#a30700"/></g><g id="china-line"><polyline points="804.19 102.44 742.77 163.94 742.77 249.83" style="fill:none;stroke:#1966cb;stroke-miterlimit:10;stroke-width:5px"/><circle cx="743.24" cy="249.76" r="11.08" style="fill:none;stroke:#1966cb;stroke-miterlimit:10;stroke-width:5px"/></g><g id="chemiqa"><path d="M362.07,34.91A69.31,69.31,0,0,1,359,43.56a56.31,56.31,0,0,1-4.28,8.14,31.76,31.76,0,0,1-5.95,7.09,14.6,14.6,0,0,1-4,2.51,8,8,0,0,1-4.92.41,8.19,8.19,0,0,1-4.17-2.8,14.76,14.76,0,0,1-2.38-4.27,31.37,31.37,0,0,1-1.73-9.34A58.78,58.78,0,0,1,334,26.73a58.73,58.73,0,0,1,7.9-17,31.21,31.21,0,0,1,6.47-7,14.7,14.7,0,0,1,4.3-2.33,8.2,8.2,0,0,1,5-.12,8,8,0,0,1,3.93,3,14.56,14.56,0,0,1,2.05,4.28,31.7,31.7,0,0,1,1.21,9.18A56.18,56.18,0,0,1,364.1,26,69.31,69.31,0,0,1,362.07,34.91Zm0,0a57.31,57.31,0,0,0,2.37-18.11,29.76,29.76,0,0,0-1.65-8.9,13.18,13.18,0,0,0-2.14-3.84,6.66,6.66,0,0,0-3.41-2.28,6.55,6.55,0,0,0-4,.38,13.25,13.25,0,0,0-3.6,2.27A30.49,30.49,0,0,0,344,11.2a55.25,55.25,0,0,0-4.15,7.92,68.6,68.6,0,0,0-3,8.46,67.82,67.82,0,0,0-2,8.76,54.4,54.4,0,0,0-.75,8.91A30.31,30.31,0,0,0,335.24,54a13.19,13.19,0,0,0,1.82,3.85,6.55,6.55,0,0,0,3.17,2.47,6.67,6.67,0,0,0,4.1-.1,13.15,13.15,0,0,0,3.87-2.09,29.71,29.71,0,0,0,6.16-6.63A57.34,57.34,0,0,0,362.07,34.91Z" style="fill:#dbdbdb"/><path d="M338.91,40.85A69.31,69.31,0,0,1,332.82,34a56.31,56.31,0,0,1-5.08-7.67,31.75,31.75,0,0,1-3.35-8.63,14.6,14.6,0,0,1-.26-4.74,8,8,0,0,1,2-4.51,8.19,8.19,0,0,1,4.46-2.31,14.76,14.76,0,0,1,4.89,0,31.37,31.37,0,0,1,9,3,61.5,61.5,0,0,1,26.18,26.17,31.21,31.21,0,0,1,3,9,14.7,14.7,0,0,1,0,4.89,8.2,8.2,0,0,1-2.31,4.46,8,8,0,0,1-4.51,2,14.57,14.57,0,0,1-4.74-.26A31.7,31.7,0,0,1,353.45,52a56.19,56.19,0,0,1-7.67-5.08A69.31,69.31,0,0,1,338.91,40.85Zm0,0a57.31,57.31,0,0,0,14.73,10.8,29.76,29.76,0,0,0,8.59,2.84,13.18,13.18,0,0,0,4.4,0,6.66,6.66,0,0,0,3.64-1.89,6.55,6.55,0,0,0,1.59-3.68,13.25,13.25,0,0,0-.26-4.25,30.49,30.49,0,0,0-3.21-8.19A55.25,55.25,0,0,0,363.45,29a68.61,68.61,0,0,0-6-6.72,67.83,67.83,0,0,0-6.72-6,54.4,54.4,0,0,0-7.45-4.94,30.31,30.31,0,0,0-8.2-3.21,13.19,13.19,0,0,0-4.25-.26,6.55,6.55,0,0,0-3.69,1.59,6.67,6.67,0,0,0-1.89,3.64,13.15,13.15,0,0,0,0,4.4,29.71,29.71,0,0,0,2.84,8.59A57.34,57.34,0,0,0,338.91,40.85Z" style="fill:#dbdbdb"/><path d="M352.76,44.32a69.31,69.31,0,0,1-8.93,2.13,56.31,56.31,0,0,1-9.16.86,31.76,31.76,0,0,1-9.19-1.11,14.6,14.6,0,0,1-4.3-2,8,8,0,0,1-3-3.9,8.19,8.19,0,0,1,.07-5A14.76,14.76,0,0,1,320.5,31a31.37,31.37,0,0,1,6.89-6.55,61.5,61.5,0,0,1,35.42-10.75,31.21,31.21,0,0,1,9.37,1.62,14.7,14.7,0,0,1,4.3,2.33,8.2,8.2,0,0,1,2.85,4.14,8,8,0,0,1-.35,4.93,14.56,14.56,0,0,1-2.47,4.06,31.7,31.7,0,0,1-7,6,56.19,56.19,0,0,1-8.1,4.37A69.31,69.31,0,0,1,352.76,44.32Zm0,0a57.31,57.31,0,0,0,16.47-7.9,29.76,29.76,0,0,0,6.55-6.24,13.18,13.18,0,0,0,2-3.89,6.66,6.66,0,0,0,0-4.1,6.55,6.55,0,0,0-2.5-3.14,13.25,13.25,0,0,0-3.87-1.77,30.49,30.49,0,0,0-8.74-1,55.25,55.25,0,0,0-8.9.84,68.61,68.61,0,0,0-8.73,2.08,67.83,67.83,0,0,0-8.42,3.12,54.4,54.4,0,0,0-7.87,4.24,30.31,30.31,0,0,0-6.7,5.71,13.19,13.19,0,0,0-2.23,3.62,6.55,6.55,0,0,0-.34,4,6.67,6.67,0,0,0,2.32,3.38,13.15,13.15,0,0,0,3.87,2.1,29.71,29.71,0,0,0,8.92,1.54A57.34,57.34,0,0,0,352.76,44.32Z" style="fill:#dbdbdb"/><path d="M359.3,19.87q-.46,1.45-.77,2.88a25.26,25.26,0,0,0-.45,2.84l-1.35-.2c0-.23,0-.44.06-.66s0-.42,0-.64a3.25,3.25,0,0,0-1.76-2.89,9.13,9.13,0,0,0-4.74-1.06,9.83,9.83,0,0,0-8.14,3.68q-2.93,3.68-2.93,10.16a11.33,11.33,0,0,0,2.31,7.49,7.71,7.71,0,0,0,6.24,2.76,8.29,8.29,0,0,0,4.85-1.38,7.54,7.54,0,0,0,2.84-4l1.25.28q-.3,1-.54,2.12T355.72,44a26,26,0,0,1-4.58,1.92,14,14,0,0,1-4,.65,11.54,11.54,0,0,1-8.61-3.29,11.88,11.88,0,0,1-3.24-8.72,16.9,16.9,0,0,1,1.25-6.34A17.11,17.11,0,0,1,340,22.72a15.71,15.71,0,0,1,5.32-3.66,16.5,16.5,0,0,1,6.45-1.27,13.78,13.78,0,0,1,3.71.52A18.42,18.42,0,0,1,359.3,19.87Z" style="fill:#757575"/><path d="M360,44.9h.46a1.21,1.21,0,0,0,1-.42,7,7,0,0,0,.64-2.31l1.65-9.71q0-.32.07-.56t0-.4a.87.87,0,0,0-.29-.74,1.64,1.64,0,0,0-1-.22h-.21l.14-.8,1.54.11,1.1,0q.59,0,1.29,0l1.56-.11-.12.8h-.25a1.87,1.87,0,0,0-1.23.31,2.13,2.13,0,0,0-.49,1.27l-.82,4.7,1.93.07,1.89,0,2.19,0,2.32-.07.69-4.37q.08-.55.1-.72t0-.25a.83.83,0,0,0-.3-.71,1.64,1.64,0,0,0-1-.22h-.25l.15-.8,1.49.11,1.1,0q.61,0,1.35,0l1.58-.11-.15.8H378a2.19,2.19,0,0,0-.94.15,1.07,1.07,0,0,0-.47.54,10,10,0,0,0-.38,1.59q-.26,1.36-.81,4.55l-.15.93q-.11.63-.3,1.78a37.13,37.13,0,0,0-.55,3.77,1.08,1.08,0,0,0,.25.84,1.55,1.55,0,0,0,1,.22H376l-.15.77L374,45.55l-1,0q-.67,0-2.78.16h0l.12-.76h.43q1.27,0,1.72-2.44l0-.16.76-4.31-2.51-.08-2.41,0q-.91,0-1.75,0l-1.65.08-.8,4.54q-.06.42-.09.69a4.34,4.34,0,0,0,0,.46,1.35,1.35,0,0,0,.25.93,1.16,1.16,0,0,0,.87.27h.46l-.15.77q-.79-.08-1.51-.12t-1.34,0l-1.11,0-1.65.12Z" style="fill:#757575"/><path d="M377.93,44.9h.46a1.21,1.21,0,0,0,1-.42,7,7,0,0,0,.64-2.31l1.65-9.71q0-.32.07-.56t0-.4a.87.87,0,0,0-.29-.74,1.64,1.64,0,0,0-1-.22h-.21l.14-.82,2.89.09,2.53,0,4.89-.09.8,0q-.19.75-.32,1.58T391.06,33l-.89,0q0-.09,0-.19t0-.3a1.37,1.37,0,0,0-.63-1.32,9,9,0,0,0-3.29-.35H385l-.94,0q-.26,1.43-.51,2.89t-.5,2.94h.26q1.37.06,2.4.06h.36a4.92,4.92,0,0,0,2.26-.32,1.71,1.71,0,0,0,.63-1.2l.76.18a20,20,0,0,0-.47,2,16.22,16.22,0,0,0-.22,2l-.82,0a.73.73,0,0,0,0-.14q0-.36,0-.5a.89.89,0,0,0-.47-.89,8.38,8.38,0,0,0-2.58-.22h-1.28l-1,0q-.34,1.84-.6,3.42t-.45,3q.77.09,1.59.13t2.17,0a5.76,5.76,0,0,0,2.91-.49,3.4,3.4,0,0,0,1.13-2l.82.14q-.32,1.08-.5,1.93t-.28,1.62l-3.48-.11q-1.61,0-3,0l-2.2,0-3.21.11Z" style="fill:#757575"/><path d="M391.56,44.9l.18,0,.16,0q1.24,0,1.8-2.44v-.08l2.19-9.76.15-.73a2,2,0,0,0,0-.29,1,1,0,0,0-.32-.88,2.56,2.56,0,0,0-1.31-.22l.16-.8h.42l1.62,0,1.05,0,1.17-.05v0a.79.79,0,0,0,0,.12,28.35,28.35,0,0,0,.74,4.07q.74,3.31,2,8.38l1.61-2.85q5-9,5.1-9.75l1.2.05,1,0,.91,0,1.18,0-.14.79h-.25q-1.27,0-1.52,2l0,.28-1.22,9.54q-.07.56-.11.9t0,.52a1.14,1.14,0,0,0,.29.89,1.51,1.51,0,0,0,1,.26h.2l-.15.77q-.55-.06-1.15-.09t-1.61,0l-1.32,0-1.55.09.18-.76h.48q1.39,0,1.72-2.48l0-.29,1.44-10.59-6.82,12.14q-.28.49-.51.94t-.43,1h-.91q-.07-.59-.19-1.2t-.36-1.59l-2.54-10.65L395,42.47q-.11.52-.15.84a4.23,4.23,0,0,0,0,.5,1,1,0,0,0,.31.87,2.13,2.13,0,0,0,1.18.23h.16l-.13.77L395,45.59l-1.15,0-1.14,0-1.19.09Z" style="fill:#757575"/><path d="M415.13,29.72q1.18.11,1.79.13l1,0q.55,0,1.25,0l1.51-.11-.16.81h-.34a1.41,1.41,0,0,0-1.14.43,5.27,5.27,0,0,0-.65,2.09l-1.66,9.5q-.07.41-.11.7a3.94,3.94,0,0,0,0,.45,1.32,1.32,0,0,0,.27,1,1.37,1.37,0,0,0,.95.26h.4l.05,0-.16.76-1.67-.11-1.19,0-1.2,0-1.71.11.18-.76.16,0h.23a1.35,1.35,0,0,0,1.08-.4,4.69,4.69,0,0,0,.62-1.93l1.76-10.07q0-.25.06-.49a3.25,3.25,0,0,0,0-.35,1.13,1.13,0,0,0-.31-.94,2.2,2.2,0,0,0-1.22-.23Z" style="fill:#757575"/><path d="M428.09,46H428q-.52,0-.79,0a5.31,5.31,0,0,1-4.15-1.7,6.65,6.65,0,0,1-1.53-4.62,11.73,11.73,0,0,1,.63-3.76,10.89,10.89,0,0,1,1.75-3.29A8.89,8.89,0,0,1,431,29.24,5.82,5.82,0,0,1,435.43,31a6.5,6.5,0,0,1,1.63,4.66,11.05,11.05,0,0,1-1.81,6.24,8.9,8.9,0,0,1-4.79,3.7l1.27,1.29a9,9,0,0,0,2.12,1.64,4.34,4.34,0,0,0,2,.55,5.65,5.65,0,0,0,.88-.08q.48-.08,1.11-.24l.21.75a18.33,18.33,0,0,1-2.22.63,8.77,8.77,0,0,1-1.72.18,4.86,4.86,0,0,1-2.53-.72,10.13,10.13,0,0,1-2.51-2.3Zm.34-1.21a5.35,5.35,0,0,0,4.56-2.4,10.7,10.7,0,0,0,1.72-6.35,6.4,6.4,0,0,0-1.15-4.12,4.08,4.08,0,0,0-3.36-1.42,5.36,5.36,0,0,0-4.59,2.41,10.93,10.93,0,0,0-1.72,6.46,6.14,6.14,0,0,0,1.17,4A4.14,4.14,0,0,0,428.43,44.81Z" style="fill:#757575"/><path d="M437.09,44.92l.26,0h.15q1,0,2.51-2.52l.68-1.16,2.59-4.2q1-1.58,2.09-3.52t2.33-4.11h1.71q0,.7.18,1.76t.56,3.49l.87,5.05.22,1.27a32.48,32.48,0,0,0,.64,3.29.78.78,0,0,0,.38.47,2.58,2.58,0,0,0,1,.12l-.14.77-1.54-.11-1.1,0-1.23,0-1.61.11.14-.77h.18a2.09,2.09,0,0,0,1.2-.25,1.06,1.06,0,0,0,.33-.9q0-.11,0-.4a1,1,0,0,1,0-.13l-.53-3.79-1.46,0h-2.84l-1.44,0-1.87,3.3a7.26,7.26,0,0,0-.42.88,1.55,1.55,0,0,0-.11.52.63.63,0,0,0,.32.56,1.67,1.67,0,0,0,.89.2h.26l-.15.77-.79-.06q-1.29-.08-1.72-.08l-1.1,0-1.46.11Zm6.62-6.46h3.74l1.23,0-1-6.74Z" style="fill:#757575"/></g><g id="chemiqa-line"><circle cx="312.18" cy="254.37" r="11.08" style="fill:none;stroke:#1966cb;stroke-miterlimit:10;stroke-width:5px"/><polyline points="377.25 72.61 377.25 188.84 312.17 253.95" style="fill:none;stroke:#1966cb;stroke-miterlimit:10;stroke-width:5px"/></g><g id="flottec"><path d="M17.72,112.22h6.13c3.13,0,6.27-.17,9.4-.12s3.46.82,2.08,3.46c-2.07,4-4.07,7.68-6.09,11.66-.12.23-.18.69-.35.69H41.67c1.11-1.85,2.36-4.35,3.59-6.77s2.35-4.45,3.48-6.75a4.77,4.77,0,0,1,4.79-2.92c4.47.07,8.95,0,13.42.06,2.4,0,2.8.72,1.71,2.88Q65,121.6,61.37,128.76a4.54,4.54,0,0,1-4.45,2.69c-4.14-.07-8.28-.05-12.42,0-6.14.06-12.28.18-18.42.27-.5,0-1,0-1.51,0-2.15-.12-2.6-.85-1.64-2.76,1.75-3.49,3.54-7,5.31-10.52a9.75,9.75,0,0,0,.69-1.57H25.5c-3,0-5.93.1-8.89,0a1.84,1.84,0,0,0-1.92,1.22c-1.55,3.16-3.18,6.3-4.77,9.43a7.26,7.26,0,0,1-6.77,4.16c-2.93.06-3.89-1.46-2.57-4.08C4,120.78,7.51,114,11,107.15c.68-1.34,1.45-2.65,2.06-4a7.23,7.23,0,0,1,7-4.52q11.66-.13,23.32,0c6.65.07-1.85,5-3.68,5.09-5.42.14-10.85.08-16.28,0a2.13,2.13,0,0,0-2.07,1.47c-1.06,2.25-2.13,4.34-3.4,7.11m44.84,2.52H61c-2.23,0-4.89-.63-6.56.36s-2.18,3.62-3.18,5.55c-1.22,2.36-2.4,4.74-3.74,7.38,2.85,0,5.4,0,7.95,0a1.25,1.25,0,0,0,.9-.57c2.12-4.1,4.2-8.23,6.47-12.69M84.32,104A6.45,6.45,0,0,0,83,105.32q-5.63,10.95-11.17,21.95c-1.39,2.79-3.37,4.54-6.63,4.5-2.66,0-3.48-1.23-2.28-3.63,2.92-5.84,5.92-11.75,8.88-17.58,1.06-2.08,2.09-3.88,3.29-6.65H71.17c-4.36,0-8.73.17-13.09.06-.87,0-2.34-.51-2.44-1a3.18,3.18,0,0,1,1-2.69,7.54,7.54,0,0,1,4-1.66q35.82-.15,71.65,0c.73,0,1.88.44,2.08,1a3,3,0,0,1-.52,2.4,5.76,5.76,0,0,1-5,2.2c-11.19,0-22.37,0-33.56,0a2.51,2.51,0,0,0-2.69,1.6c-3.64,7.36-7.42,14.64-11.12,22a6.7,6.7,0,0,1-6.37,4.1c-2.75,0-3.56-1.25-2.31-3.72C75.39,123,78,117.9,80.58,112.82q2.13-4.17,4.23-8.35l-.49-.51m22.43,24h1.75c2.91,0,5.82,0,8.72.16,5.64.26.08,3.29-1.65,3.29-4,0-8.06,0-12.08,0-6.45,0-12.9,0-19.36,0-2.56,0-2.91-.6-1.74-2.89,2.35-4.63,4.76-9.23,7-13.9a5.32,5.32,0,0,1,5.42-3.35c4,.1,8.05,0,12.08,0,6.39,0,12.79,0,19.18,0,5,.06-.19,3.21-1.74,3.23-3.24,0-6.49,0-9.73.05a2.13,2.13,0,0,0-1.6.78c-2.09,3.95-4.09,7.83-6.1,11.82-.09.18-.1.69-.19.69h0m-18.45.14c.79,0,1.32.08,1.86.08,3.18,0,6.37-.05,9.55,0a1.49,1.49,0,0,0,1.65-1c1.57-3.14,3.18-6.26,4.77-9.39.52-1,1-2,1.58-3.24-4.07,0-7.86,0-11.65,0a1.48,1.48,0,0,0-1.12.47c-.87,1.53-1.64,3.12-2.58,4.95,1.77,0,3.22-.1,4.64,0,4.66.47-.15,3.12-1.64,3.2-1.23.06-2.46,0-3.68,0a1.72,1.72,0,0,0-1.23.58c-.75,1.28-1.37,2.64-2.14,4.17.79,0,.77-1.53,0,0" style="fill:#03387e"/></g><g id="flottec-line"><circle cx="260.48" cy="311.6" r="11.08" style="fill:none;stroke:#1966cb;stroke-miterlimit:10;stroke-width:5px"/><polyline points="128.15 145.49 260.02 277.31 260.02 311.68" style="fill:none;stroke:#1966cb;stroke-miterlimit:10;stroke-width:5px"/></g><g id="flottec-mexico"><path d="M29.72,344.91h6.22c3.13,0,6.27-.2,9.4-.14s3.46.81,2.08,3.45c-2.07,4-4.07,7.7-6.09,11.68-.12.23-.18.71-.35.71H53.76c1.11-1.85,2.36-4.37,3.59-6.8s2.35-4.46,3.48-6.77a4.77,4.77,0,0,1,4.79-2.93c4.47.06,8.95,0,13.42.06,2.4,0,2.8.72,1.71,2.88q-3.62,7.18-7.29,14.34A4.54,4.54,0,0,1,69,364.08c-4.14-.07-8.28-.05-12.42,0-6.14.06-12.28.18-18.42.27-.5,0-1,0-1.51,0-2.15-.12-2.6-.85-1.64-2.76,1.75-3.49,3.54-7,5.31-10.49a9.21,9.21,0,0,0,.69-1.55H37.59c-3,0-5.93.07-8.89,0a1.83,1.83,0,0,0-1.92,1.21C25.23,353.9,23.6,357,22,360.16a7.26,7.26,0,0,1-6.77,4.15c-2.93.06-3.89-1.46-2.57-4.08,3.44-6.83,6.93-13.64,10.4-20.46.68-1.34,1.45-2.65,2.06-4a7.23,7.23,0,0,1,7-4.52q11.66-.13,23.32,0c6.65.07-1.85,5-3.68,5.09-5.42.14-10.85.08-16.28,0a2.13,2.13,0,0,0-2.07,1.47c-1.06,2.25-2.17,4.37-3.45,7.13m44.88,2.49H73.05c-2.23,0-4.89-.63-6.56.36s-2.18,3.62-3.18,5.55c-1.22,2.36-2.4,4.74-3.74,7.38,2.85,0,5.4,0,7.95,0a1.25,1.25,0,0,0,.9-.57c2.12-4.1,4.2-8.23,6.47-12.69m21.51-10.89A6.45,6.45,0,0,0,95.06,338Q89.43,348.9,83.9,359.9c-1.39,2.79-3.37,4.54-6.63,4.5-2.66,0-3.48-1.23-2.28-3.63,2.92-5.84,5.92-11.73,8.88-17.55,1.06-2.08,2.09-3.85,3.29-6.62H83.25c-4.36,0-8.73.14-13.09,0-.87,0-2.34-.53-2.44-1a3.19,3.19,0,0,1,1-2.69,7.55,7.55,0,0,1,4-1.66q35.82-.15,71.65,0c.73,0,1.88.44,2.08,1a3,3,0,0,1-.52,2.4,5.76,5.76,0,0,1-5,2.2c-11.19,0-22.37,0-33.56,0a2.51,2.51,0,0,0-2.69,1.6c-3.64,7.36-7.42,14.64-11.12,22a6.7,6.7,0,0,1-6.37,4.1c-2.75,0-3.56-1.25-2.31-3.72,2.57-5.08,5.17-10.15,7.76-15.22q2.13-4.17,4.23-8.35l-.49-.51m22.43,24h1.75c2.91,0,5.82,0,8.72.14,5.64.26.08,3.28-1.65,3.28l-12.08,0c-6.45,0-12.9,0-19.36,0-2.56,0-2.91-.6-1.74-2.89,2.35-4.63,4.76-9.23,7-13.9a5.32,5.32,0,0,1,5.42-3.35c4,.1,8.05,0,12.08,0,6.39,0,12.79,0,19.18,0,5,.06-.19,3.21-1.74,3.23-3.24,0-6.49,0-9.73.05a2.13,2.13,0,0,0-1.6.78C123,352,121,355.89,119,359.88c-.09.18-.1.72-.19.72h0m-18.45.09c.79,0,1.32.08,1.86.08,3.18,0,6.37-.05,9.55,0a1.49,1.49,0,0,0,1.65-1c1.57-3.14,3.18-6.26,4.77-9.39.52-1,1-2,1.58-3.24-4.07,0-7.86,0-11.65,0a1.48,1.48,0,0,0-1.12.47c-.87,1.53-1.64,3.12-2.58,4.95,1.77,0,3.22-.1,4.64,0,4.66.47-.15,3.12-1.64,3.2-1.23.06-2.46,0-3.68,0a1.72,1.72,0,0,0-1.23.58c-.75,1.28-1.37,2.64-2.14,4.17.79,0,.77-1.53,0,0" style="fill:#03387e"/><path d="M116.9,376.69c-.06-1.22-.14-2.68-.13-3.76h0c-.3,1-.66,2.11-1.1,3.31l-1.54,4.23h-.85l-1.41-4.15c-.41-1.23-.76-2.35-1-3.39h0c0,1.09-.09,2.55-.17,3.85l-.23,3.74h-1.07l.61-8.71h1.44l1.49,4.21c.36,1.07.66,2,.88,2.93h0c.22-.88.53-1.84.92-2.93l1.55-4.21h1.44l.54,8.71h-1.1Z" style="fill:#03387e"/><path d="M124.46,376.43h-3.39v3.14h3.78v.94h-4.9V371.8h4.71v.94h-3.58v2.75h3.39Zm-.22-6.61-1.64,1.51h-.93l1.2-1.51Z" style="fill:#03387e"/><path d="M131.07,380.52,130,378.59c-.45-.74-.74-1.22-1-1.72h0c-.25.5-.49,1-.94,1.73l-1,1.91h-1.29l2.66-4.41-2.56-4.31h1.31l1.15,2c.32.57.57,1,.8,1.47h0c.25-.52.47-.92.79-1.47l1.19-2h1.29L129.66,376l2.72,4.47Z" style="fill:#03387e"/><path d="M134.81,371.8v8.71h-1.12V371.8Z" style="fill:#03387e"/><path d="M142.86,380.23a5.58,5.58,0,0,1-2.3.41,4.07,4.07,0,0,1-4.31-4.41,4.34,4.34,0,0,1,4.55-4.58,4.67,4.67,0,0,1,2.07.39l-.27.92a4.1,4.1,0,0,0-1.76-.36,3.24,3.24,0,0,0-3.4,3.59,3.17,3.17,0,0,0,3.35,3.5,4.5,4.5,0,0,0,1.84-.36Z" style="fill:#03387e"/><path d="M151.71,376.07c0,3-1.82,4.59-4,4.59s-3.92-1.78-3.92-4.42,1.72-4.58,4-4.58S151.71,373.48,151.71,376.07Zm-6.76.14c0,1.86,1,3.53,2.78,3.53s2.79-1.64,2.79-3.62c0-1.73-.91-3.54-2.78-3.54S144.95,374.3,144.95,376.21Z" style="fill:#03387e"/></g><g id="flottec-mexico-line"><circle cx="292.79" cy="354.06" r="11.08" style="fill:none;stroke:#1966cb;stroke-miterlimit:10;stroke-width:5px"/><line x1="175.56" y1="353.67" x2="292.79" y2="353.67" style="fill:none;stroke:#1966cb;stroke-miterlimit:10;stroke-width:5px"/></g><g id="mercantil"><path d="M218,548.55c0,.29,0,1.27.05,1.27H137.54s.05-1,.08-1.28c1.61-1.57,3.68-1.53,5.64-1.53,23,0,46,.06,69.07.09,2,0,4,0,5.66,1.45" style="fill:#0b00ec"/><path d="M230.88,549.82c.82-1.85,1.67-5.16,2.45-7.56.3-.94.83-1.62,1.82-1.6s1.29.91,1.46,1.59c.62,2.44,2.16,4.8,2,7.57Z" style="fill:#0b00ec"/><path d="M220.6,549.82c.2-3.69,2.9-.11,4-1.82-1.33-1.79-5.67-2.82-3.07-6.33,1.37-1.86,3.4-1.53,5.05.08-1,1.75-2.13.17-3.42,1,2.57,1.57,5.06,3.37,3.41,7.06Z" style="fill:#0b00ec"/><path d="M218,548.16H137.62c-7.78-8.94-14.32-18.82-21.13-28.47-2.8-4-.52-9.11-1.24-14.13,2,.57,2.45,2,3.24,3,7.34,9.45,13.91,19.49,21.79,28.54a8.8,8.8,0,0,0,7.42,3.16c21.54-.14,43.08-.07,64.62-.07,5.91,0,5.92,0,5.83,5.84,0,.71-.11,1.42-.17,2.12" style="fill:#0b00ec"/><path d="M97.82,505.22l24.71,33.26c-6.37,1.28-11.57,1.18-14.62-5.27a20.62,20.62,0,0,0-4-5.52c-6.07-6.14-8.09-13.41-6.1-22.46" style="fill:#0b00ec"/><path d="M105.51,538.6c-7.27,1.54-12.41,0-15.45-6.42a17,17,0,0,0-3.25-4.48c-6-6.14-8.25-13.36-6-22.3l24.72,33.2" style="fill:#0b00ec"/><path d="M187.09,530.09c1-1.24-2-4.57,1.89-4.77,6.8-.36,7.5.3,7.65,5.61a1.56,1.56,0,0,1,0,.43c-.41,1.64,1,4.69-1,4.73-2.86.06-1.12-3-1.45-4.71s.36-3.94-1.91-4.12-2.7,1.88-3.06,3.85c-.31,1.73,1.29,4.93-1.22,4.88-2,0-.45-3.36-.93-5.15a4.52,4.52,0,0,1,0-.75" style="fill:#0b00ec"/><path d="M167.76,536.44c-2.85,0-4.84-.81-5.83-3.24a5.46,5.46,0,0,1,1-6.29,6.48,6.48,0,0,1,6.66-1.61c.78.21,1.8.61,1.53,1.67-.31,1.22-1.3.71-2.05.41-2.08-.82-3.57.18-4.82,1.64a2.66,2.66,0,0,0-.1,3.52A4.75,4.75,0,0,0,169,534.4c.78-.1,1.95-1.65,2.33.1.3,1.39-1.13,1.73-2.3,1.87-.56.07-1.13.06-1.31.07" style="fill:#0b00ec"/><path d="M203.89,525.88c-3.78,2.68-1.83,6.2-2.38,9.18-.15.8-.5,1.32-1.33,1.3s-1.07-.83-1-1.51c.49-4.22-1.19-8.41-.08-12.66.35-1.34,1.12-2,1.88-1.1,1.24,1.39-.3,4.28,2.9,4.79" style="fill:#0b00ec"/><path d="M154.87,530.45c0-5.43.7-6.22,4.74-5.42.57.11,1.22.12,1.18.86,0,.49-.33,1.36-.57,1.38-4.17.39-2.43,3.64-2.92,5.82-.25,1.11.89,3.07-1,3.18-2.29.13-1.2-2-1.43-3.25a14,14,0,0,1,0-2.56" style="fill:#0b00ec"/><path d="M213.05,528.59c0,1.85,0,4.44,0,7,0,.75-.2,1.1-1.16,1-.68-.07-.84-.83-.85-1.4,0-5.12,0-10.32,0-15.44,0-.75.21-1.52,1.17-1.38s.86,1.63.86,2.31c0,2.42,0,5.14,0,7.91Z" style="fill:#0b00ec"/><path d="M207.76,531c-.87,1.65,1.18,4.94-1.24,5s-1.17-3.25-1.08-4.94c.11-2-1.67-5.47,1.2-5.62,2-.1.42,3.6,1.12,5.56" style="fill:#0b00ec"/><path d="M178.53,525.05a5.49,5.49,0,0,0-5.86,5.9c.21,3.49,2,5.49,5.71,5.51,6.16,0,6.16.06,6.16-5.72,0-5.6,0-5.6-6-5.69m.22,9.43c-2.47-.13-3.85-1.57-3.89-3.73a3.69,3.69,0,1,1,3.89,3.73" style="fill:#0b00ec"/><path d="M148.8,534.29a3.65,3.65,0,0,1-3.91-1,1.61,1.61,0,0,1-.32-1.48c.81-1.08,2.12-.23,3.13-.6,1.9-.7,5.65,2.16,5.41-2.75-1.78-3.19-4.46-4.27-7.85-3-2.53.93-3.66,3-3.51,5.7s1.43,4.64,4.16,5.14c3.19.58,5.92-.08,7.09-3.61-1.85-.65-2.77,1.12-4.19,1.59m1.7-3.85h-5.94c2.91-3.69,3.45-3.69,5.94,0" style="fill:#0b00ec"/></g><g id="mercantil-line"><circle cx="388.79" cy="432.52" r="11.08" style="fill:none;stroke:#1966cb;stroke-miterlimit:10;stroke-width:5px"/><polyline points="243.87 527.21 293.71 527.21 388.45 432.47" style="fill:none;stroke:#1966cb;stroke-miterlimit:10;stroke-width:5px"/></g></g></g></svg>