<!-- Generator: Adobe Illustrator 21.0.0, SVG Export Plug-In  -->
<svg version="1.1"
	 xmlns="http://www.w3.org/2000/svg" xmlns:xlink="http://www.w3.org/1999/xlink" xmlns:a="http://ns.adobe.com/AdobeSVGViewerExtensions/3.0/"
	 x="0px" y="0px" width="28.8px" height="20px" viewBox="0 0 28.8 20" style="enable-background:new 0 0 28.8 20;"
	 xml:space="preserve">
<style type="text/css">
	.st0{fill:#FFFFFF;}
</style>
<defs>
</defs>
<path class="st0" d="M23.8,20l-2.1-2l-0.9-0.1l-1.5,0.9l-8.4-3.8l-1-1.4l0.4-1.1l-0.4-1.3L6.5,7.7l0.2-0.5L4.5,4.6L3.5,2.1l-1-0.6
	L2.6,3L5,6.5l1.8,3.8L6,11L3.8,8.5L3.7,7.1L1.3,5.3L2.4,5l0-0.4L1.2,3.1L0,0h2.5l2.9,1.7h2.7V1.1L10,1.4l2.5,2.9l0.8-0.9l1.5,0.3
	l2.1,3.5l1.5,0.4v0.9L17.9,11l1.8,3.9l1.8,0.6l1.7-0.8l0.5,0.2l0.4-0.4l0.6-2.1l2-1l2,0.1l-0.6,3L26.7,16H25l-0.1,0.7l1,1.1L24.1,18
	L23.8,20z M20.6,17.4l1.2,0.1l1.6,1.5l0.2-1.4l1.3-0.2l-0.5-0.6l0.2-1.3h2l1.2-1.2l0.5-2.3l-1.3,0l-1.8,0.9l-0.6,2l-0.7,0.7
	l-0.6-0.2L21.6,16l-2.2-0.8l-2-4.2L18,8.3V7.9l-1.4-0.3L14.5,4l-1-0.2l-1,1.1L9.8,1.8L8.6,1.7v0.5H5.3L2.4,0.5H0.7l0.9,2.4l1.3,1.5
	l0,0.9L2.3,5.5l1.9,1.4l0.1,1.4L6,10.3l0.2-0.2L4.6,6.7L2.2,3.1L2,0.7l1.9,1.1l0.9,2.6L7.2,7L7.1,7.6l3.2,3.3l0.4,1.5l-0.4,1.1
	l0.8,1.1l8,3.6L20.6,17.4z"/>
</svg>
