<!-- Generator: Adobe Illustrator 19.0.0, SVG Export Plug-In  -->
<svg version="1.1"
	 xmlns="http://www.w3.org/2000/svg" xmlns:xlink="http://www.w3.org/1999/xlink" xmlns:a="http://ns.adobe.com/AdobeSVGViewerExtensions/3.0/"
	 x="0px" y="0px" width="28.8211px" height="19.6458px" viewBox="0 0 28.8211 19.6458"
	 style="enable-background:new 0 0 28.8211 19.6458;" xml:space="preserve">
<style type="text/css">
	.st0{fill:#FFFFFF;}
</style>
<defs>
</defs>
<g id="XMLID_15_">
	<path id="XMLID_16_" class="st0" d="M23.8032,19.6458l-2.1169-2.0413l-0.9425-0.0992l-1.5371,0.8868l-8.3539-3.7651l-1.0314-1.4182
		l0.4201-1.1403l-0.3665-1.2566L6.5298,7.3494l0.1751-0.5252L4.457,4.2954l-0.91-2.5024l-0.997-0.5983L2.636,2.6561l2.361,3.4772
		l1.7897,3.8099l-0.8243,0.7327L3.7972,8.1284L3.7408,6.7748L1.2845,4.949l1.072-0.3137l0.0121-0.4356L1.1694,2.9564L0,0h2.5281
		l2.9416,1H7.97V0.793l1.9813,0.2824l2.5168,2.8651l0.8529-0.9385l1.5096,0.2728l1.8479,3.525L17.97,7.1655v0.8988l-0.3283,2.6009
		l1.9469,3.8784l1.8977,0.6303l1.7709-0.8125l0.4932,0.2126l0.4236-0.3746l0.5906-2.0542l2.0496-0.9926l2.007,0.0689l-0.6495,3.1631
		L26.73,16H24.994l-0.0789,0.4974l0.9754,0.9636l-1.8189,0.2261L23.8032,19.6458z M20.6431,17.0307l1.2493,0.1315l1.5745,1.5183
		l0.1932-1.4423l1.2957-0.192l-0.5242-0.6603L24.5835,15h1.9553l1.2111-1.1153l0.5037-2.269l-1.3393-0.022l-1.7591,0.8646
		l-0.5666,1.9892l-0.7374,0.6667l-0.5599-0.2474L21.5719,15.67l-2.1991-0.7536l-1.9846-4.1964L17.97,8.0147V7.5292l-1.3539-0.3264
		L14.5467,3.691l-1.036-0.1887L12.5,4.6403L9.9832,1.5068L8.97,1.3278V2H5.3477L2.4061,0H0.6659L1.573,2.4877l1.2617,1.513
		L2.8084,4.9666L2.3037,5.1229l1.889,1.4085l0.059,1.417l1.7569,2.068l0.214-0.1897L4.5949,6.3621L2.1828,2.81L2.0381,0.3493
		l1.8868,1.1321l0.9357,2.5733L7.2271,6.717l-0.171,0.5129l3.2301,3.3435l0.441,1.512l-0.3874,1.0515l0.8143,1.1197l8.0268,3.6177
		L20.6431,17.0307z"/>
</g>
</svg>
