<!-- Generator: Adobe Illustrator 21.0.0, SVG Export Plug-In  -->
<svg version="1.1"
	 xmlns="http://www.w3.org/2000/svg" xmlns:xlink="http://www.w3.org/1999/xlink" xmlns:a="http://ns.adobe.com/AdobeSVGViewerExtensions/3.0/"
	 x="0px" y="0px" width="18.4px" height="18.4px" viewBox="0 0 18.4 18.4" style="enable-background:new 0 0 18.4 18.4;"
	 xml:space="preserve">
<style type="text/css">
	.st0{fill:#FFFFFF;}
</style>
<defs>
</defs>
<path class="st0" d="M2.1,1.2c-0.1,0-0.1,0-0.2,0.1L0.1,3.2C0,3.3,0,3.5,0.1,3.6C5.6,9.1,9.5,13,14.8,18.3c0.1,0.1,0.1,0.1,0.2,0.1
	c0.1,0,0.2-0.1,0.2-0.1l1.8-1.8c0.1-0.1,0.1-0.2,0.1-0.3c0-0.1-0.1-0.1-0.1-0.2c0,0-2.4-2.4-3.6-3.6c-0.1-0.1-0.1-0.1-0.2-0.1
	c0,0,0,0,0,0c-0.1,0-0.2,0.1-0.2,0.1L11.4,14l-7-7L6,5.4l0,0l0,0c0,0,0,0,0,0c0,0,0,0,0,0C6.2,5.3,6.1,5.1,6,5L2.3,1.3
	C2.3,1.3,2.2,1.2,2.1,1.2z M2.1,1.9l3.3,3.3L4,6.7L0.7,3.4L2.1,1.9z M13.2,13l3.3,3.3l-1.4,1.4l-3.3-3.3L13.2,13z"/>
<path class="st0" d="M14.9,0c-0.2,0-0.3,0.1-0.3,0.3v3h-3c-0.2,0-0.3,0.1-0.3,0.3c0,0.2,0.1,0.3,0.3,0.3h0h3v3
	c0,0.2,0.1,0.3,0.3,0.3c0.2,0,0.3-0.1,0.3-0.3c0,0,0,0,0,0v-3h3c0.2,0,0.3-0.1,0.3-0.3c0-0.2-0.1-0.3-0.3-0.3h0h-3v-3
	C15.2,0.1,15,0,14.9,0L14.9,0z"/>
</svg>
